<?xml version="1.0" encoding="utf-8"?>
<!-- Generator: Adobe Illustrator 23.0.0, SVG Export Plug-In . SVG Version: 6.00 Build 0)  -->
<svg version="1.1" id="a" xmlns="http://www.w3.org/2000/svg" xmlns:xlink="http://www.w3.org/1999/xlink" x="0px" y="0px"
	 viewBox="0 0 1080 876.4" style="enable-background:new 0 0 1080 876.4;" xml:space="preserve">
<style type="text/css">
	.st0{fill:#0C3F77;}
</style>
<g>
	<g>
		<g>
			<path class="st0" d="M384.2,489.9c5.8-1,9.8-4.8,10.7-10.4c1.1-6.7-1.4-12.1-6.6-14.5c-2.2-1.1-5.1-1.7-7.9-1.7
				c-7.1-0.2-14.2-0.1-21.3-0.1h-7.7c-1.9,0-1.9,0.1-1.9,1.9v25.1h30.3C381.3,490.2,382.7,490.1,384.2,489.9L384.2,489.9z"/>
			<path class="st0" d="M481,532c10.5-0.4,18.1-5.2,23.2-14.5c3.6-6.5,5.3-13.5,5.4-22c-0.1-3.8-0.7-9.5-3.2-15.9
				c-2.6-6.7-5.9-11.2-10.4-14.1c-4.1-2.8-9-4.2-15.3-4.6c-0.9,0-1.8-0.1-2.6-0.1c-11.9,0-20.2,4.7-25.3,14.5
				c-6.2,11.9-6.9,24.4-2,37.3c2.5,6.5,5.8,11.2,10.2,14.5C466.3,530.7,472.6,532.3,481,532L481,532z"/>
			<path class="st0" d="M954.5,391.8h-225L681,329.5l210.7-21.7c10.6-1,16.3-12.8,10.3-21.7c-67.5-103.7-183.8-171.2-313.2-173.2
				l-1-5.9c-4.2-24.6-17.7-46.1-37.9-60.4c-20.2-14.3-44.8-20-69.5-15.8c-24.4,3.9-45.8,17.5-60.4,37.7c-13.8,19.7-19.5,43.4-16,67
				c-74.9,22.4-139.7,66.5-187,124.9c-24.6,30.3-44.8,64.8-59.4,101.5c-3.9,9.9,3.9,20.5,14.5,19.2l497-50.5l-71,61.1H124.7
				c-51.5,0-93.1,41.6-93.1,93.1s41.6,92.9,93.1,92.9h27.6v56.9c0,60.4,48.8,109.2,109.2,109.2h549.5c60.1,0,109.2-48.8,109.2-109.2
				v-56.9h34.5c51.5,0,93.1-41.6,93.1-92.9S1006,391.8,954.5,391.8L954.5,391.8z M454.3,92.9c8.1-11.1,19.7-18.5,33.3-20.7
				c13.3-2.2,26.9,0.7,37.9,8.6c11.3,7.9,18.5,19.7,20.9,33v0.5c-1,0-2.2,0.3-3.2,0.3l-68.7,6.9c-9.9,1.2-19.7,2.5-29.3,4.2
				C444.2,114.1,447.4,102.8,454.3,92.9L454.3,92.9z M424.5,312.7l-20.2,2.5l-11.1-89.9l-35.5,4.4l-2.5-20.2l59.9-7.4l30.8-3.7
				l0.7,5.7l1.7,14.3l-35,4.2L424.5,312.7L424.5,312.7z M548.5,297.4l-5.7-44.8l-49.5,6.2l5.7,44.8l-20.2,2.5l-13.5-110.1l20-2.5
				l5.7,45.1l49.5-6.2l-5.4-44.8l20.2-2.5L568.7,295L548.5,297.4L548.5,297.4z M646.5,285.6c-12.6,1.5-25.1,3-37.7,4.7h-0.3
				c-5.4,0.7-11.3-1-15.8-4.4c-4.7-3.4-7.4-8.4-8.1-14.5l-2.5-19.2c-2-16-3.9-32-5.9-48.1c-0.7-5.9,0.7-11.3,4.4-16
				c3.4-4.4,8.9-7.6,14.5-8.1c12.6-1.5,25.4-3,37.9-4.7l20-2.5l2.5,20.2l-56.9,6.9c-1.5,0.3-2,0.5-2,0.5s-0.3,0.5,0,2.2l3,22.7
				l55.2-6.9l2.5,20.5l-55.2,6.6l2.7,22.4c0.3,2,0.5,2.2,0.5,2.2s0.3,0,2-0.3l56.9-6.9l2.5,20.2L646.5,285.6L646.5,285.6z
				 M152.3,536h-27.6c-28.3,0-51-22.9-51-51s22.7-51.2,51-51.2h27.6V536L152.3,536z M638.4,392h0.3l-0.3,0.3V392z M336.6,450
				c3.9-3.7,9.1-5.7,14.3-5.7h30.8c6.9,0,13.1,1.5,18.5,4.9c1.7,1,3.2,2.2,4.7,3.4c0.7,0.7,1.5,1.7,2.2,2.5c0.3,0.3,0.7,0.7,1,1.2
				c0.3,0.3,0.5,0.7,0.7,1c0.3,0.5,0.7,1,1,1.7c0.7,1.2,1.5,2.5,2,3.9c0.3,0.3,0.3,0.7,0.5,1.2c0,0.3,0.3,0.5,0.3,0.7
				c0.3,0.3,0.3,0.7,0.3,1.2c0.3,0.3,0.5,0.7,0.5,1.2c0,0.3,0.3,0.3,0.3,0.5c0.3,0.5,0.3,1,0.5,1.7c2.2,9.1,0,19-5.4,26.4
				c-1,1.2-1.7,2.2-2.7,3.2c-1.7,2-3.9,3.7-6.4,5.2c0,0.3-0.3,0.5-0.7,0.7l20.7,43.1h-0.3l-3.9,0.5h-14.9c-0.3-0.1-0.7-0.1-0.9-0.3
				h-0.3c-0.7-0.3-1.2-0.5-1.5-1c-0.3-0.3-0.5-0.5-0.5-0.7c-0.3-0.3-0.3-0.5-0.3-0.7l-6.9-14.3l-9.6-20.9c-0.3-0.3-0.5-0.5-0.7-0.7
				c0-0.3-0.3-0.5-0.5-0.5c-0.3-0.3-0.7-0.3-1.5-0.3h-28.1v39.4h-19v-27.1c0-18.7,0-37.9-0.3-56.9C330.4,459,332.6,453.9,336.6,450
				L336.6,450z M274,627.4c1.2,1.7,2.7,3.4,3.9,5.4c1.2,1.7,2.5,3.4,3.9,5.2c2.7,3.9,5.4,8.1,8.4,11.8c3.9,5.7,7.9,11.3,11.8,17
				l8.9,12.8l-4.2,0.5h-6.9c-3.2,0-6.4,0-9.6,0.3H290c-0.3,0-0.7,0-1-0.3c-0.5,0-0.7,0-1-0.3h-0.3c-0.5-0.3-1.2-0.7-1.7-1.2
				c-0.3-0.3-0.5-0.7-1-1c-7.9-11.6-16-22.9-24.1-34.3l-8.1-11.3c-0.3-0.7-0.5-1-0.7-1.2h-0.7l-1.7,1.7c-3.9,3.7-7.6,7.4-11.6,11.3
				v36.2h-20.2V571.2h20V616c7.4-7.2,14.5-14.5,21.7-21.4c7.4-7.4,14.8-14.5,21.9-21.7c1.2-1.2,2.7-2,4.7-2c4.2,0.3,8.4,0.3,12.8,0
				h13.1L266,616.5C268.7,620,271.4,623.7,274,627.4L274,627.4z M315.6,512.6c-0.3,5.4-1.5,10.3-3.4,14.5c-1,2.2-2.2,4.2-3.4,6.2
				c-1.5,1.7-2.7,3.4-4.4,4.9c-6.2,6.2-14.1,10.1-21.7,11.6c-4.9,1-9.9,1.5-14.3,1.5c-5.4,0-10.3-0.5-15.3-2
				c-6.9-1.7-12.6-4.7-17.5-9.1c-0.7-0.5-1.5-1.2-2.2-2l-0.7-0.7c-0.3-0.5-0.7-1-1.2-1.7c-0.2,0-0.3-0.1-0.3-0.3
				c-0.5-0.5-1-1-1.5-1.7c-0.3-0.3-0.3-0.5-0.5-0.7l-0.3-0.3c0,0,0-0.3-0.3-0.5c-0.7-1-1.5-2.2-2.2-3.4c-0.3-0.5-0.5-1-0.7-1.5
				c-0.5-0.7-0.7-1.2-1-2c-0.3-0.5-0.5-0.7-0.7-1.2c-4.9-11.1-6.9-22.4-5.7-33.7c1-10.1,3.9-19,8.6-26.6c2-3.2,4.2-6.2,6.6-8.9
				c7.4-7.6,17.5-12.1,29.3-12.8c11.6-1,21.9,0.7,31.3,4.9c4.4,2,8.1,4.7,11.8,8.1c1.2,0.7,2.5,2.2,3.7,3.4c0.3,0.3,0.5,0.7,0.7,1
				l1.2,1.7l-1.2,2h-0.3l-13.1,12.1l-2-3.2c-0.3-0.3-0.3-0.5-0.5-0.7c-6.9-6.9-15.3-10.6-25.4-10.6c-2.2,0-4.2,0.3-6.4,0.5
				c-4.2,0.5-7.9,1.7-11.1,3.9c-5.2,3.2-8.9,8.9-11.6,16.5c-4.2,12.6-3,24.6,3.4,36.2c1.2,2.5,2.7,4.4,4.4,6.2
				c5.7,5.9,13.3,8.4,23.4,7.9c6.2-0.5,11.3-2,15.5-4.9c1.5-0.7,2.7-2,3.9-3.2c3.4-3.4,5.2-8.1,5.4-13.5c0-0.7-0.3-1-0.3-1
				s-0.3-0.3-1-0.3h-33.5v-19.2h33c5.9-0.3,11.1,2,15,6.2c3.7,3.7,5.9,9.1,5.9,14.8L315.6,512.6L315.6,512.6z M342,680.1h-20V571.2
				h20V680.1L342,680.1z M444.7,590.9H410v89.2h-20.2v-89.2h-35v-19.7h89.9L444.7,590.9L444.7,590.9z M443.3,537.9c-1-1-2-2.2-3-3.4
				c-1-1.2-2-2.5-3-3.9c-0.7-1.2-1.7-2.7-2.5-4.2c-0.7-1.5-1.2-3-2-4.7c-4.2-10.6-5.9-20.7-4.7-30.8c1.2-11.8,4.7-21.7,10.3-30.1
				c1.7-2.5,3.4-4.7,5.4-6.4c0.7-1,1.5-1.7,2.5-2.2c0.7-0.7,1.5-1.2,2.2-2c1.7-1,3.4-2.2,5.2-3.2h0.3c0.7-0.3,1.5-0.7,2.5-1.2
				c1-0.3,1.7-0.7,2.5-1h0.3c2.2-0.7,4.4-1.5,6.9-2c8.1-1.5,16.5-1.5,24.6,0c1.5,0.3,3,0.7,4.4,1c0.5,0.3,1.2,0.5,2,0.7
				s1.5,0.5,2.5,1c0.7,0.3,1.5,0.5,2.2,1c0,0,0.3,0,0.5,0.3c1,0.3,1.7,0.7,2.7,1.2c0.5,0.5,1.2,0.7,2,1.5c1,0.5,2,1.2,3,2
				c1.5,1.2,2.7,2.5,3.9,3.7c1,1,2,2,2.7,3.2c0.3,0.3,0.7,0.7,1,1c0.5,0.7,1,1.5,1.5,2.5c0.5,0.7,1.2,1.5,1.7,2.2
				c1,1.7,2,3.4,2.7,5.4c4.9,10.6,6.9,21.7,5.7,33c-1,10.8-4.2,20.5-9.6,28.6c-1,1.5-1.7,2.7-3,3.9c-1,1.5-2,2.5-3.2,3.7
				c-6.6,6.6-15.5,10.6-26.1,12.1c-2.2,0-4.2,0.3-5.9,0.3l-2,0.3c-12.1-0.3-20.5-2.2-27.6-6.4c-1.7-1.2-3.4-2.2-4.9-3.4
				C445.8,540.2,444.5,539.2,443.3,537.9L443.3,537.9z M544.3,653.2c-0.7,1.7-1.5,3.7-2.2,5.4c-1,1.7-1.7,3.2-2.7,4.7
				c-1,1.5-2,3-3,4.2c-1.2,1.2-2.2,2.5-3.4,3.7c-0.7,0.7-1.5,1.2-2.2,1.7c-0.7,0.7-1.5,1.2-2,1.7c-2.7,1.7-5.7,3.2-8.9,4.4
				c-1.5,0.7-3.2,1.2-4.7,1.5c-1.7,0.5-3.7,1-5.4,1.2c-3.4,0.5-6.6,0.7-9.9,0.7c-5.2,0-10.6-0.7-15.8-2c-1.2-0.3-2.2-0.5-3.2-1
				c-1-0.5-2-0.7-3-1.2c-0.5-0.3-1.2-0.5-1.7-0.7c-1-0.3-1.7-0.7-2.7-1.2c-2-1.2-3.9-2.5-5.9-3.9c-0.5-0.5-1-1-1.7-1.5
				c-1.2-1.2-2.5-2.5-3.4-3.9c-0.7-0.5-1-1-1.2-1.5c-1.2-1.2-2.5-2.7-3.4-4.4c-0.7-1.2-1.2-2.5-2-3.9c-0.3-0.5-0.7-1-0.7-1.5
				c-5.9-12.1-8.1-24.4-6.9-36.5c1.5-11.3,4.7-20.9,10.1-29.3c2.2-3.4,4.4-6.2,7.2-8.6c0.3-0.5,0.3-0.7,0.5-0.7
				c0.7-0.7,1.5-1.2,2.2-1.7c0.3-0.3,0.3-0.5,0.5-0.5c1-0.7,2-1.2,2.7-2c2-1.5,4.2-2.5,6.4-3.4c0.7-0.5,1.2-0.7,2.2-1
				c1.2-0.5,2.2-1,3.7-1.2c0.3-0.3,0.5-0.3,0.7-0.3c1.7-0.5,3.7-1,5.4-1.2c1.7-0.3,3.4-0.5,5.2-0.5c9.9-0.7,17.7,0.3,25.1,3.2
				c5.7,2.2,10.3,5.2,14.3,9.4c3.7,3.9,6.9,8.9,9.1,14.8c0.5,1,0.7,1.7,1,2.7l1.2,3.9h-0.3l-19.2,4.7l-1.2-3.4c-0.5-1-0.7-1.7-1-2.7
				c-1.5-3-3.2-5.7-5.4-7.6c-1.2-0.7-2.7-1.7-3.9-2.5c-1.5-0.7-3-1-4.7-1.5c-8.4-2.2-16-1.7-22.9,1.2c-0.5,0.5-1.2,0.7-2,1.2
				c-0.7,0.3-1.2,0.7-2,1c-1.5,1-2.5,2-3.7,3l-2.2,2.2c-2.7,3.2-4.7,6.9-6.2,11.3c-3.7,12.6-3,24.6,2.2,35.7c0.3,1,0.7,2,1.5,3
				c0.5,0.7,1.2,1.7,1.7,2.7c0.7,0.7,1.2,1.5,2,2.5c0.5,0.5,1,1,1.5,1.2c0.5,0.5,1,1,1.5,1.5c0.5,0.5,1.2,1,2,1.5
				c0.7,0.3,1.2,0.7,1.7,1c0,0.3,0.3,0.3,0.5,0.3c1.5,1,3.2,1.7,4.7,2.2h0.3c0.5,0.3,1,0.5,1.5,0.5c0.7,0.3,1.5,0.3,2.2,0.3
				c0.2,0.2,0.3,0.3,0.5,0.3c0.5,0,1,0.3,1.7,0.3c2.5,0.3,4.9,0.3,7.6,0c3.7-0.5,6.6-1.2,9.4-2.2c1-0.5,2-1,2.7-1.2
				c2.7-1.7,5.2-4.2,6.9-7.4c0.7-1.5,1.5-3,2-4.9l0.7-1.7l1-1.5l3,0.5l16.3,4.2h0.3l-2,5.2L544.3,653.2z M652.9,680.1h-20v-44.6h-49
				v44.6h-20.2V571.2h20v44.4h49v-44.4h20.2V680.1L652.9,680.1z M647.3,536c-2,7.9-9.4,13.1-18,12.8c-7.9,0-15-5.9-16.5-13.5
				c-2.5-10.8-4.7-21.7-6.9-32.3l-6.9-31.5l-9.4,43.4c-1.5,6.4-2.7,12.6-4.2,19c-1.5,7.9-7.6,14.1-14.8,15c-1,0-2,0.3-3,0.3
				c-6.9,0-13.1-3.7-16-9.9c-1.2-3-2-5.9-2.7-8.9v-1.2c-2.7-11.8-5.2-23.4-7.6-35.2l-9.6-45.1c0-0.3-0.3-0.7-0.3-1l-0.7-3.4h19.5
				l17.5,80.6c0-0.7,0.3-1.2,0.5-2l9.1-43.6c1.7-7.2,3.2-14.3,4.9-21.7c2-8.1,8.4-13.3,16.8-13.3c8.4,0,15,5.7,16.8,13.5
				c1.7,8.6,3.7,17.5,5.7,26.4l8.6,40.6l0.3-0.5l26.4-124.4l1.7-8.1h-19.5l34.3-29.3l22.9,29.3h-18l-1.7,8.1l-11.8,55L647.3,536
				L647.3,536z M750,680.1h-20.2c-12.3,0-24.9,0-37.2,0.3h-0.3c-5.4,0-10.8-2.5-14.8-6.4c-4.2-3.9-6.2-9.4-6.2-15v-66.8
				c0-3,0.5-5.9,1.5-8.6c0.7-1.2,1.5-2.5,2.2-3.7c0.3-0.3,0.5-0.7,1-1.2c0.3-0.5,0.7-1,1.2-1.2c0.3-0.3,0.3-0.5,0.5-0.5
				c2.5-2.5,5.4-4.2,8.9-5.2c1.5-0.3,3-0.5,4.7-0.5c15-0.3,30.1-0.3,45.1,0l12.8,0.3h0.3l0.3,2.2v17.2h-57.4c-0.3,0-0.6,0.1-0.7,0.3
				c-0.3,0.3-0.3,0.3-0.3,2v22.7h54.7v20h-54.7v22.9c0,0.7,0,1.2,0.3,1.5s0.7,0.3,1.5,0.3H750L750,680.1L750,680.1z M755.4,463.3
				h-33.3v85.5H703v-85.5h-30.6l3.9-19h79.1V463.3z M854.2,661.9c0,0.5,0,1.5-0.3,2v1.2c-0.3,1-0.5,2-1,3c0,1-0.5,1.7-1,2.5v0.3
				c-0.7,1.2-1.5,2-2.2,3c-0.3,0.7-0.7,1.2-1.2,1.5l-1.5,1.5c-1,0.7-1.7,1.2-2.5,1.5c-0.7,0.3-1.5,0.7-2,1c-0.7,0.3-1.5,0.5-2.5,0.7
				c-1.2,0.3-2.5,0.5-3.7,0.5c-1.5,0-3-0.3-4.4-0.7c-0.7,0-1.2-0.3-1.7-0.5c-2-0.7-3.9-1.7-5.4-3.2c-2-2-3.7-3.9-4.7-6.4
				c-11.1-23.4-22.2-46.6-33.3-70v80.6h-20v-90.7c0-1.5,0-3,0.3-4.2c0.3-1.2,0.5-2.5,1.2-3.7c0.5-1.2,1-2.2,1.7-3.2
				c0.7-1.2,1.5-2,2.5-3c2.2-2,4.9-3.4,8.1-3.9c2.7-0.7,5.7-0.7,8.4,0.3c0.5,0,1,0.3,1.5,0.3c1,0.5,1.7,1,2.5,1.5
				c1,0.5,1.7,1,2.5,1.7c1,0.5,1.5,1.2,2.2,2s1.2,1.5,1.7,2.2c0.5,0.7,1,1.5,1.2,2.5l33.3,70.2v-80.8h20.2L854.2,661.9L854.2,661.9z
				 M854.2,548.8H835v-42.6H788v42.6h-19.2V444.3H788v42.6H835v-42.4h19.2V548.8L854.2,548.8z M954.5,536H920V433.7h34.5
				c28.3,0,51,23.2,51,51.2C1005.5,513,982.9,535.9,954.5,536L954.5,536z"/>
		</g>
		<g>
			<path class="st0" d="M873.5,365.4c62.1-12.8,73.7-53.3,46.3-108c-10.6-24.2-20.9-51.8-15.1-80.7c4.5-28.3,31-50.3,58.8-51.4
				c-38.9,14.2-51.9,51.7-39.4,89c4.9,17,14.9,37.2,21.1,53.9C965.4,325,934.8,370.7,873.5,365.4L873.5,365.4L873.5,365.4z"/>
			<path class="st0" d="M966.5,239.5c-33.6-24.8-28-80.5,15.2-90C954.1,178.5,955.6,204.7,966.5,239.5L966.5,239.5z"/>
		</g>
	</g>
	<g>
		<path class="st0" d="M51.1,831.7c-4.2,0-7.8-0.9-10.7-2.8s-5.2-4.4-6.8-7.7c-1.6-3.3-2.3-7.1-2.3-11.4c0-4.3,0.8-8.2,2.3-11.4
			c1.6-3.3,3.8-5.9,6.8-7.7c3-1.8,6.5-2.8,10.7-2.8c4.8,0,8.9,1.2,12,3.7c3.2,2.5,5.4,5.8,6.6,9.9l-6.2,1.7
			c-0.8-2.9-2.3-5.2-4.4-6.9c-2.1-1.7-4.8-2.5-8.1-2.5c-3,0-5.5,0.7-7.4,2c-2,1.3-3.5,3.2-4.5,5.6c-1,2.4-1.5,5.2-1.5,8.4
			c0,3.2,0.5,6,1.5,8.4c1,2.4,2.5,4.3,4.5,5.6c2,1.3,4.5,2,7.5,2c3.3,0,6-0.8,8.1-2.5c2.1-1.7,3.6-4,4.4-6.9l6.2,1.7
			c-1.2,4.1-3.5,7.4-6.6,9.9C60,830.5,56,831.7,51.1,831.7L51.1,831.7z"/>
		<path class="st0" d="M89.9,831.7c-3.2,0-5.9-0.7-8.2-2.1s-4.1-3.4-5.4-5.9c-1.2-2.5-1.9-5.4-1.9-8.7s0.6-6.2,1.9-8.7
			c1.3-2.5,3.1-4.4,5.4-5.8c2.3-1.4,5-2.1,8.1-2.1c3.1,0,5.9,0.7,8.2,2.1c2.3,1.4,4.1,3.4,5.4,5.9c1.3,2.5,1.9,5.4,1.9,8.6
			s-0.6,6.2-1.9,8.7c-1.3,2.5-3.1,4.5-5.4,5.9C95.8,831,93.1,831.7,89.9,831.7L89.9,831.7z M89.9,826c3,0,5.3-1,6.8-3
			c1.5-2,2.2-4.7,2.2-7.9s-0.8-5.9-2.3-7.9c-1.5-2-3.7-3-6.7-3c-2.1,0-3.7,0.5-5.1,1.4c-1.3,0.9-2.3,2.2-2.9,3.8
			c-0.6,1.6-1,3.5-1,5.6c0,3.3,0.8,6,2.3,7.9C84.8,825,87,826,89.9,826L89.9,826z"/>
		<path class="st0" d="M125.5,831.7c-3.2,0-5.9-0.7-8.2-2.1c-2.3-1.4-4.1-3.4-5.4-5.9c-1.2-2.5-1.9-5.4-1.9-8.7s0.6-6.2,1.9-8.7
			c1.3-2.5,3.1-4.4,5.4-5.8c2.3-1.4,5-2.1,8.1-2.1c3.1,0,5.9,0.7,8.2,2.1c2.3,1.4,4.1,3.4,5.4,5.9c1.3,2.5,1.9,5.4,1.9,8.6
			s-0.6,6.2-1.9,8.7c-1.3,2.5-3.1,4.5-5.4,5.9C131.4,831,128.7,831.7,125.5,831.7L125.5,831.7z M125.5,826c3,0,5.3-1,6.8-3
			c1.5-2,2.2-4.7,2.2-7.9s-0.8-5.9-2.3-7.9c-1.5-2-3.7-3-6.7-3c-2.1,0-3.7,0.5-5.1,1.4c-1.3,0.9-2.3,2.2-2.9,3.8
			c-0.6,1.6-1,3.5-1,5.6c0,3.3,0.8,6,2.3,7.9C120.4,825,122.6,826,125.5,826L125.5,826z"/>
		<path class="st0" d="M147.4,830.8v-42.1h6.2v25.7l12.4-15.2h7.8l-13.1,15.8l14.4,15.8h-8.3l-13.2-15.2v15.2L147.4,830.8
			L147.4,830.8z"/>
		<path class="st0" d="M178.6,794.1v-5.9h6.1v5.9H178.6z M178.6,830.8v-31.5h6.1v31.5H178.6z"/>
		<path class="st0" d="M221.8,813.3v17.5h-6.2v-15.5c0-1.2-0.1-2.5-0.3-3.8c-0.2-1.3-0.6-2.5-1.2-3.6c-0.6-1.1-1.4-2-2.4-2.7
			c-1-0.7-2.4-1-4.1-1c-1.1,0-2.1,0.2-3.1,0.5c-1,0.4-1.8,1-2.6,1.7c-0.7,0.8-1.3,1.9-1.7,3.2c-0.4,1.3-0.6,2.9-0.6,4.8v16.4h-6.2
			v-31.5h5.5v3.8c0.9-1.1,1.9-2.1,3.2-2.8c2-1.2,4.4-1.8,7.3-1.8c2.2,0,4,0.3,5.5,1c1.5,0.7,2.7,1.6,3.6,2.8s1.6,2.4,2.1,3.7
			c0.5,1.3,0.8,2.6,1,3.9S221.8,812.3,221.8,813.3L221.8,813.3z"/>
		<path class="st0" d="M251.3,799.3v2.8c-0.6-0.6-1.1-1.1-1.8-1.5c-2-1.5-4.5-2.2-7.5-2.2c-3,0-5.5,0.7-7.7,2.2
			c-2.2,1.5-3.8,3.4-5,5.9c-1.2,2.5-1.8,5.4-1.8,8.5s0.6,6,1.8,8.5c1.1,2.5,2.8,4.5,4.9,6c2.1,1.5,4.7,2.2,7.6,2.2
			c2.9,0,5.6-0.7,7.6-2.2c0.4-0.3,0.7-0.6,1.1-0.9v3c0,1.8-0.3,3.3-0.9,4.5c-0.6,1.2-1.6,2.1-2.8,2.8c-1.2,0.6-2.7,0.9-4.4,0.9
			c-1.4,0-2.7-0.3-4-0.9c-1.3-0.6-2.2-1.6-2.9-3l-5.6,2.9c0.8,1.5,1.9,2.8,3.2,3.8c1.3,1,2.8,1.8,4.3,2.3c1.6,0.5,3.2,0.8,4.9,0.8
			c2.5,0,4.7-0.3,6.6-1c1.9-0.7,3.5-1.7,4.8-3.1c1.2-1.4,2.1-3.2,2.6-5.3c0.1-0.8,0.3-1.5,0.3-2.3c0.1-0.8,0.1-1.6,0.1-2.4v-32.4
			L251.3,799.3L251.3,799.3z M250.5,820.8c-0.6,1.7-1.5,3-2.8,3.9c-1.3,1-2.9,1.4-4.9,1.4c-2,0-3.6-0.5-4.8-1.5
			c-1.3-1-2.2-2.3-2.9-4c-0.6-1.7-1-3.6-1-5.6s0.3-3.9,1-5.6c0.6-1.7,1.6-3,2.9-4c1.3-1,3-1.5,5-1.5c1.9,0,3.5,0.5,4.7,1.4
			c1.2,0.9,2.2,2.2,2.8,3.9s0.9,3.6,0.9,5.8S251,819.2,250.5,820.8L250.5,820.8z"/>
		<path class="st0" d="M293.6,799.3v5.7c-1-0.3-2.2-0.4-3.4-0.2c-1.2,0.1-2.4,0.5-3.4,1.2c-1,0.6-1.8,1.4-2.3,2.3
			c-0.6,0.9-1,1.9-1.2,3s-0.4,2.3-0.4,3.6v15.9h-6.2v-31.5h5.4v5c0.2-0.4,0.5-0.8,0.7-1.2c0.6-0.8,1.4-1.5,2.2-2.1
			c0.8-0.6,1.7-1,2.7-1.4c1-0.3,2-0.5,3-0.6C291.7,799.1,292.7,799.1,293.6,799.3L293.6,799.3z"/>
		<path class="st0" d="M312.3,831.7c-3.2,0-5.9-0.7-8.2-2.1c-2.3-1.4-4.1-3.4-5.4-5.9c-1.2-2.5-1.9-5.4-1.9-8.7s0.6-6.2,1.9-8.7
			c1.3-2.5,3.1-4.4,5.4-5.8c2.3-1.4,5-2.1,8.1-2.1c3.1,0,5.9,0.7,8.2,2.1c2.3,1.4,4.1,3.4,5.4,5.9c1.3,2.5,1.9,5.4,1.9,8.6
			s-0.6,6.2-1.9,8.7c-1.3,2.5-3.1,4.5-5.4,5.9C318.2,831,315.5,831.7,312.3,831.7L312.3,831.7z M312.3,826c3,0,5.3-1,6.8-3
			c1.5-2,2.2-4.7,2.2-7.9s-0.8-5.9-2.3-7.9c-1.5-2-3.7-3-6.7-3c-2.1,0-3.7,0.5-5.1,1.4c-1.3,0.9-2.3,2.2-2.9,3.8s-1,3.5-1,5.6
			c0,3.3,0.8,6,2.3,7.9C307.2,825,309.4,826,312.3,826L312.3,826z"/>
		<path class="st0" d="M361.5,806.5c-1.2-2.5-2.8-4.5-5-5.9c-2.1-1.5-4.7-2.2-7.7-2.2s-5.5,0.7-7.5,2.2c-0.4,0.3-0.7,0.6-1.1,0.9
			v-12.7h-6.1v42h5.4v-2.9c0.6,0.6,1.2,1.1,1.8,1.6c2,1.5,4.6,2.2,7.6,2.2s5.5-0.7,7.6-2.2s3.8-3.4,4.9-6c1.2-2.5,1.8-5.4,1.8-8.5
			S362.7,809,361.5,806.5L361.5,806.5z M355.8,820.7c-0.6,1.7-1.6,3-2.9,4c-1.3,1-2.9,1.5-4.8,1.5s-3.7-0.5-4.9-1.4
			c-1.3-1-2.2-2.3-2.8-3.9c-0.6-1.7-0.9-3.6-0.9-5.8s0.3-4.1,0.9-5.8s1.5-3,2.8-3.9c1.2-0.9,2.8-1.4,4.7-1.4c2,0,3.7,0.5,5,1.5
			c1.3,1,2.3,2.3,2.9,4c0.6,1.7,1,3.6,1,5.6S356.5,819,355.8,820.7L355.8,820.7z"/>
		<path class="st0" d="M397.4,799.3v31.5H392V827c-0.9,1.1-1.9,2.1-3.2,2.8c-2,1.2-4.4,1.8-7.3,1.8c-2.2,0-4-0.3-5.5-1
			c-1.5-0.7-2.7-1.6-3.6-2.8s-1.6-2.4-2.1-3.7c-0.5-1.3-0.8-2.6-1-3.9c-0.2-1.3-0.3-2.4-0.3-3.4v-17.5h6.2v15.5
			c0,1.2,0.1,2.5,0.3,3.8c0.2,1.3,0.6,2.5,1.2,3.6c0.6,1.1,1.4,2,2.4,2.7c1.1,0.7,2.4,1,4.1,1c1.1,0,2.1-0.2,3.1-0.6
			c1-0.3,1.8-0.9,2.6-1.7c0.7-0.8,1.3-1.8,1.7-3.2c0.4-1.3,0.6-2.9,0.6-4.8v-16.4L397.4,799.3L397.4,799.3z"/>
		<path class="st0" d="M417.7,831.7c-3.8,0-7-0.8-9.4-2.5c-2.4-1.7-3.9-4.1-4.4-7.2l6.2-1c0.4,1.6,1.3,2.9,2.7,3.9
			c1.4,1,3.2,1.4,5.3,1.4c1.9,0,3.4-0.4,4.5-1.2c1.1-0.8,1.6-1.8,1.6-3.2c0-0.8-0.2-1.4-0.6-1.9c-0.4-0.5-1.2-1-2.4-1.4
			c-1.2-0.4-3-1-5.5-1.7c-2.7-0.7-4.8-1.5-6.4-2.3s-2.7-1.8-3.4-2.8c-0.7-1.1-1-2.4-1-3.9c0-1.9,0.5-3.6,1.5-5
			c1-1.4,2.4-2.5,4.3-3.3s4-1.2,6.5-1.2s4.6,0.4,6.5,1.1c1.9,0.8,3.4,1.8,4.6,3.2s1.9,3,2.1,4.9l-6.2,1.1c-0.2-1.5-0.9-2.7-2.1-3.6
			c-1.2-0.9-2.8-1.4-4.7-1.4c-1.8-0.1-3.3,0.2-4.5,0.9c-1.1,0.7-1.7,1.7-1.7,2.9c0,0.7,0.2,1.3,0.7,1.8c0.4,0.5,1.3,1,2.6,1.4
			c1.3,0.4,3.1,1,5.6,1.6c2.6,0.7,4.8,1.4,6.3,2.3c1.6,0.8,2.7,1.8,3.3,2.9c0.7,1.1,1,2.5,1,4.1c0,3.1-1.1,5.6-3.4,7.3
			C424.9,830.8,421.7,831.7,417.7,831.7L417.7,831.7z"/>
		<path class="st0" d="M445.6,804.2v13.9c0,1.3,0,2.4,0,3.3c0,0.9,0.2,1.7,0.6,2.4c0.7,1.2,1.8,1.9,3.3,2.1c1.5,0.2,3.3,0.1,5.4-0.2
			v5.2c-2,0.4-3.9,0.6-5.8,0.5c-1.9-0.1-3.6-0.4-5.1-1.1c-1.5-0.7-2.6-1.8-3.4-3.2c-0.7-1.3-1-2.6-1.1-4c0-1.4-0.1-2.9-0.1-4.6
			v-14.2h-6.1v-4.9h6.1v-8.8h6.1v8.8h9.4v4.9L445.6,804.2L445.6,804.2z"/>
		<path class="st0" d="M517.2,809.7v21.1h-6.1l0-19.7c0-2.3-0.6-4-1.8-5.3c-1.2-1.3-2.7-1.9-4.6-1.9c-1.2,0-2.2,0.3-3.2,0.8
			c-1,0.5-1.8,1.3-2.3,2.4c-0.6,1.1-0.9,2.4-0.9,4v19.7h-6.1l0-19.5c0-2.3-0.6-4.1-1.8-5.4c-1.1-1.3-2.7-1.9-4.7-1.9
			c-1.9,0-3.5,0.7-4.7,2c-1.2,1.3-1.8,3-1.8,5.2v19.7h-6.1v-31.5h5.4v3.4c0.9-1.1,2-2.1,3.3-2.8c1.7-0.9,3.6-1.4,5.8-1.4
			c2.2,0,4.1,0.5,5.7,1.4c1.5,0.9,2.6,2.1,3.4,3.7c1-1.6,2.2-2.8,3.9-3.7c1.7-0.9,3.6-1.4,5.7-1.4c3.4,0,6,1,7.9,3.1
			C516.3,803.6,517.2,806.3,517.2,809.7z"/>
		<path class="st0" d="M550.3,807.7c-0.1-1.1-0.4-2.2-0.9-3.3c-1-2.1-2.5-3.6-4.6-4.6c-2.1-1-4.6-1.4-7.4-1.4
			c-3.6,0-6.6,0.8-8.7,2.4c-2.2,1.6-3.7,3.7-4.5,6.5l5.7,1.8c0.6-1.8,1.5-3,2.9-3.8c1.4-0.8,2.9-1.1,4.5-1.1c2.6,0,4.5,0.6,5.6,1.8
			c0.9,1.1,1.5,2.6,1.5,4.6c-1.2,0.1-2.4,0.3-3.6,0.5c-2,0.3-3.8,0.6-5.6,0.9c-1.8,0.3-3.4,0.7-4.8,1.1c-1.6,0.5-3,1.2-4.1,2.1
			c-1.1,0.8-1.9,1.9-2.5,3.1c-0.6,1.2-0.8,2.6-0.8,4.2c0,1.7,0.4,3.3,1.2,4.7c0.8,1.4,2,2.6,3.6,3.4c1.6,0.9,3.5,1.3,5.9,1.3
			c2.9,0,5.4-0.6,7.4-1.8c1.5-0.9,2.8-2.1,3.9-3.7v4.6h5.4v-19.4C550.5,810.1,550.5,808.9,550.3,807.7z M544.4,817.3
			c-0.1,1.2-0.2,2.2-0.6,3.2c-0.2,1-0.7,2-1.5,3c-0.7,1-1.8,1.7-3,2.3c-1.2,0.6-2.7,0.9-4.5,0.9c-1.3,0-2.4-0.2-3.2-0.6
			c-0.8-0.4-1.5-1-1.9-1.7c-0.4-0.7-0.6-1.5-0.6-2.3c0-0.8,0.2-1.5,0.6-2.1s0.9-1.1,1.5-1.5c0.7-0.4,1.4-0.8,2.2-1.1
			c1-0.3,2.1-0.6,3.4-0.8c1.3-0.2,2.7-0.4,4.3-0.7c1-0.1,2.1-0.3,3.2-0.5C544.4,816,544.4,816.6,544.4,817.3L544.4,817.3z"/>
		<path class="st0" d="M575.1,799.3v5.7c-1-0.3-2.2-0.4-3.4-0.2c-1.3,0.1-2.4,0.5-3.5,1.2c-1,0.6-1.8,1.4-2.3,2.3
			c-0.6,0.9-1,1.9-1.2,3c-0.3,1.1-0.4,2.3-0.4,3.6v15.9h-6.2v-31.5h5.4v5c0.2-0.4,0.5-0.8,0.8-1.2c0.6-0.8,1.3-1.5,2.2-2.1
			c0.8-0.6,1.7-1,2.7-1.4c1-0.3,2-0.5,3-0.6S574.2,799.1,575.1,799.3z"/>
		<path class="st0" d="M580.7,830.8v-42.1h6.2v25.7l12.4-15.2h7.8l-13.1,15.8l14.4,15.8h-8.3l-13.2-15.2v15.2L580.7,830.8
			L580.7,830.8z"/>
		<path class="st0" d="M639,816.8c0.2-3.8-0.2-7-1.3-9.8c-1.1-2.8-2.8-4.9-5.1-6.3c-2.2-1.5-5-2.2-8.2-2.2s-5.8,0.7-8.1,2.1
			c-2.3,1.4-4.1,3.3-5.4,5.9c-1.3,2.5-1.9,5.5-1.9,9c0,3.3,0.7,6.1,2,8.6c1.3,2.5,3.2,4.4,5.5,5.8c2.4,1.4,5.1,2.1,8.3,2.1
			c3.1,0,5.8-0.8,8.3-2.3c2.5-1.5,4.3-3.7,5.6-6.6l-6-1.9c-0.8,1.6-1.9,2.9-3.3,3.7c-1.4,0.9-3,1.3-5,1.3c-2.9,0-5.1-1-6.6-2.9
			c-1.3-1.6-2-3.7-2.2-6.3H639L639,816.8z M615.6,812c0.3-2.2,1-4,2.1-5.3c1.5-1.9,3.8-2.9,6.9-2.9c2.8,0,4.8,0.9,6.2,2.6
			c1,1.3,1.7,3.2,1.9,5.6H615.6L615.6,812z"/>
		<path class="st0" d="M654.2,804.2v13.9c0,1.3,0,2.4,0,3.3c0,0.9,0.2,1.7,0.6,2.4c0.7,1.2,1.8,1.9,3.3,2.1c1.5,0.2,3.3,0.1,5.4-0.2
			v5.2c-2,0.4-3.9,0.6-5.8,0.5c-1.9-0.1-3.6-0.4-5.1-1.1c-1.5-0.7-2.6-1.8-3.4-3.2c-0.7-1.3-1-2.6-1.1-4c0-1.4-0.1-2.9-0.1-4.6
			v-14.2H642v-4.9h6.1v-8.8h6.1v8.8h9.4v4.9L654.2,804.2L654.2,804.2z"/>
		<path class="st0" d="M670.8,794.1v-5.9h6.1v5.9H670.8z M670.8,830.8v-31.5h6.1v31.5H670.8z"/>
		<path class="st0" d="M714,813.3v17.5h-6.2v-15.5c0-1.2-0.1-2.5-0.3-3.8c-0.2-1.3-0.6-2.5-1.2-3.6c-0.6-1.1-1.4-2-2.4-2.7
			c-1-0.7-2.4-1-4.1-1c-1.1,0-2.1,0.2-3.1,0.5c-1,0.4-1.8,1-2.5,1.7c-0.7,0.8-1.3,1.9-1.7,3.2c-0.4,1.3-0.6,2.9-0.6,4.8v16.4h-6.2
			v-31.5h5.5v3.8c0.9-1.1,1.9-2.1,3.2-2.8c2-1.2,4.4-1.8,7.3-1.8c2.2,0,4,0.3,5.5,1s2.7,1.6,3.6,2.8c0.9,1.1,1.6,2.4,2.1,3.7
			c0.5,1.3,0.8,2.6,1,3.9C713.9,811.2,714,812.3,714,813.3L714,813.3z"/>
		<path class="st0" d="M743.5,799.3v2.8c-0.6-0.6-1.1-1.1-1.8-1.5c-2-1.5-4.5-2.2-7.5-2.2c-3,0-5.5,0.7-7.7,2.2
			c-2.1,1.5-3.8,3.4-5,5.9c-1.2,2.5-1.8,5.4-1.8,8.5s0.6,6,1.7,8.5c1.2,2.5,2.8,4.5,5,6c2.1,1.5,4.7,2.2,7.6,2.2
			c2.9,0,5.5-0.7,7.6-2.2c0.4-0.3,0.7-0.6,1.1-0.9v3c0,1.8-0.3,3.3-0.9,4.5c-0.6,1.2-1.6,2.1-2.8,2.8s-2.7,0.9-4.4,0.9
			c-1.4,0-2.7-0.3-4-0.9c-1.3-0.6-2.2-1.6-2.9-3l-5.6,2.9c0.8,1.5,1.9,2.8,3.2,3.8c1.3,1,2.8,1.8,4.3,2.3s3.2,0.8,4.9,0.8
			c2.5,0,4.7-0.3,6.6-1c1.9-0.7,3.5-1.7,4.8-3.1c1.2-1.4,2.1-3.2,2.6-5.3c0.1-0.8,0.3-1.5,0.3-2.3c0.1-0.8,0.1-1.6,0.1-2.4v-32.4
			L743.5,799.3L743.5,799.3z M742.6,820.8c-0.6,1.7-1.5,3-2.8,3.9c-1.3,1-2.9,1.4-4.9,1.4c-2,0-3.6-0.5-4.8-1.5
			c-1.3-1-2.2-2.3-2.9-4c-0.6-1.7-1-3.6-1-5.6s0.3-3.9,1-5.6c0.6-1.7,1.6-3,2.9-4c1.3-1,3-1.5,5-1.5c1.9,0,3.5,0.5,4.7,1.4
			c1.2,0.9,2.2,2.2,2.8,3.9c0.6,1.7,0.9,3.6,0.9,5.8S743.2,819.2,742.6,820.8L742.6,820.8z"/>
		<path class="st0" d="M780.9,831.7c-3.8,0-7-0.8-9.4-2.5s-3.9-4.1-4.4-7.2l6.2-1c0.4,1.6,1.3,2.9,2.7,3.9c1.4,1,3.2,1.4,5.3,1.4
			c1.9,0,3.4-0.4,4.5-1.2s1.6-1.8,1.6-3.2c0-0.8-0.2-1.4-0.6-1.9s-1.2-1-2.4-1.4c-1.2-0.4-3-1-5.5-1.7c-2.7-0.7-4.8-1.5-6.4-2.3
			s-2.7-1.8-3.4-2.8c-0.7-1.1-1-2.4-1-3.9c0-1.9,0.5-3.6,1.5-5s2.4-2.5,4.3-3.3s4-1.2,6.5-1.2s4.6,0.4,6.5,1.1s3.4,1.8,4.6,3.2
			c1.2,1.4,1.9,3,2.1,4.9l-6.2,1.1c-0.2-1.5-0.9-2.7-2.1-3.6s-2.8-1.4-4.7-1.4c-1.8-0.1-3.3,0.2-4.5,0.9s-1.7,1.7-1.7,2.9
			c0,0.7,0.2,1.3,0.7,1.8c0.4,0.5,1.3,1,2.6,1.4c1.3,0.4,3.1,1,5.6,1.6c2.6,0.7,4.8,1.4,6.3,2.3c1.6,0.8,2.7,1.8,3.3,2.9
			c0.7,1.1,1,2.5,1,4.1c0,3.1-1.1,5.6-3.4,7.3C788,830.8,784.9,831.7,780.9,831.7L780.9,831.7z"/>
		<path class="st0" d="M808.8,804.2v13.9c0,1.3,0,2.4,0,3.3c0,0.9,0.2,1.7,0.6,2.4c0.7,1.2,1.8,1.9,3.3,2.1c1.5,0.2,3.3,0.1,5.4-0.2
			v5.2c-2,0.4-3.9,0.6-5.8,0.5c-1.9-0.1-3.6-0.4-5.1-1.1c-1.5-0.7-2.6-1.8-3.4-3.2c-0.7-1.3-1.1-2.6-1.1-4s-0.1-2.9-0.1-4.6v-14.2
			h-6.1v-4.9h6.1v-8.8h6.1v8.8h9.4v4.9L808.8,804.2L808.8,804.2z"/>
		<path class="st0" d="M841.8,799.3v5.7c-1-0.3-2.2-0.4-3.4-0.2c-1.2,0.1-2.4,0.5-3.4,1.2c-1,0.6-1.8,1.4-2.3,2.3
			c-0.6,0.9-1,1.9-1.2,3c-0.3,1.1-0.4,2.3-0.4,3.6v15.9h-6.2v-31.5h5.4v5c0.2-0.4,0.5-0.8,0.8-1.2c0.6-0.8,1.4-1.5,2.2-2.1
			c0.8-0.6,1.7-1,2.7-1.4c1-0.3,2-0.5,3-0.6C839.9,799.1,840.9,799.1,841.8,799.3L841.8,799.3z"/>
		<path class="st0" d="M872,807.7c-0.1-1.1-0.4-2.2-0.9-3.3c-1-2.1-2.5-3.6-4.6-4.6c-2.1-1-4.5-1.4-7.4-1.4c-3.6,0-6.6,0.8-8.7,2.4
			c-2.2,1.6-3.7,3.7-4.5,6.5l5.7,1.8c0.6-1.8,1.5-3,2.9-3.8c1.4-0.8,2.9-1.1,4.6-1.1c2.6,0,4.5,0.6,5.5,1.8c0.9,1.1,1.5,2.6,1.5,4.6
			c-1.2,0.1-2.4,0.3-3.6,0.5c-2,0.3-3.8,0.6-5.6,0.9c-1.8,0.3-3.3,0.7-4.8,1.1c-1.6,0.5-3,1.2-4.1,2.1c-1.1,0.8-1.9,1.9-2.5,3.1
			c-0.6,1.2-0.8,2.6-0.8,4.2c0,1.7,0.4,3.3,1.2,4.7c0.8,1.4,2,2.6,3.6,3.4c1.6,0.9,3.5,1.3,5.9,1.3c2.9,0,5.4-0.6,7.4-1.8
			c1.5-0.9,2.8-2.1,3.9-3.7v4.6h5.4v-19.4C872.2,810.1,872.1,808.9,872,807.7L872,807.7z M866,817.3c0,1.2-0.2,2.2-0.6,3.2
			c-0.2,1-0.7,2-1.5,3c-0.8,1-1.8,1.7-3,2.3c-1.2,0.6-2.8,0.9-4.5,0.9c-1.3,0-2.4-0.2-3.2-0.6c-0.8-0.4-1.5-1-1.9-1.7
			c-0.4-0.7-0.6-1.5-0.6-2.3c0-0.8,0.2-1.5,0.6-2.1s0.9-1.1,1.5-1.5c0.7-0.4,1.4-0.8,2.2-1.1c1-0.3,2.1-0.6,3.4-0.8
			c1.3-0.2,2.7-0.4,4.3-0.7c1-0.1,2.1-0.3,3.3-0.5C866.1,816,866,816.6,866,817.3L866,817.3z"/>
		<path class="st0" d="M888.4,804.2v13.9c0,1.3,0,2.4,0.1,3.3c0,0.9,0.2,1.7,0.6,2.4c0.7,1.2,1.8,1.9,3.3,2.1
			c1.5,0.2,3.3,0.1,5.4-0.2v5.2c-2,0.4-3.9,0.6-5.9,0.5c-1.9-0.1-3.6-0.4-5.1-1.1c-1.5-0.7-2.6-1.8-3.4-3.2c-0.7-1.3-1.1-2.6-1.1-4
			s-0.1-2.9-0.1-4.6v-14.2h-6.1v-4.9h6.1v-8.8h6.1v8.8h9.4v4.9L888.4,804.2L888.4,804.2z"/>
		<path class="st0" d="M931.3,816.8c0.2-3.8-0.2-7-1.3-9.8c-1.1-2.8-2.8-4.9-5.1-6.3c-2.3-1.5-5-2.2-8.2-2.2s-5.8,0.7-8.1,2.1
			c-2.3,1.4-4.1,3.3-5.4,5.9c-1.3,2.5-1.9,5.5-1.9,9c0,3.3,0.7,6.1,2,8.6c1.3,2.5,3.2,4.4,5.5,5.8c2.4,1.4,5.1,2.1,8.3,2.1
			c3.1,0,5.8-0.8,8.3-2.3s4.4-3.7,5.6-6.6l-6-1.9c-0.8,1.6-1.9,2.9-3.3,3.7c-1.4,0.9-3,1.3-5,1.3c-2.9,0-5.1-1-6.7-2.9
			c-1.3-1.6-2-3.7-2.2-6.3H931.3L931.3,816.8z M907.9,812c0.3-2.2,1-4,2.1-5.3c1.5-1.9,3.9-2.9,6.9-2.9c2.8,0,4.8,0.9,6.2,2.6
			c1,1.3,1.7,3.2,1.9,5.6H907.9L907.9,812z"/>
		<path class="st0" d="M959.7,799.3v2.8c-0.5-0.6-1.1-1.1-1.8-1.5c-2.1-1.5-4.5-2.2-7.5-2.2s-5.5,0.7-7.7,2.2s-3.8,3.4-5,5.9
			c-1.2,2.5-1.8,5.4-1.8,8.5s0.6,6,1.7,8.5c1.2,2.5,2.8,4.5,4.9,6s4.7,2.2,7.6,2.2s5.5-0.7,7.6-2.2c0.4-0.3,0.7-0.6,1.1-0.9v3
			c0,1.8-0.3,3.3-0.9,4.5c-0.6,1.2-1.6,2.1-2.8,2.8s-2.7,0.9-4.4,0.9c-1.4,0-2.8-0.3-4-0.9c-1.2-0.6-2.2-1.6-2.9-3l-5.6,2.9
			c0.9,1.5,1.9,2.8,3.2,3.8c1.3,1,2.8,1.8,4.3,2.3s3.2,0.8,4.9,0.8c2.5,0,4.6-0.3,6.6-1s3.5-1.7,4.8-3.1c1.3-1.4,2.1-3.2,2.6-5.3
			c0.2-0.8,0.3-1.5,0.3-2.3c0.1-0.8,0.1-1.6,0.1-2.4v-32.4L959.7,799.3L959.7,799.3z M958.9,820.8c-0.6,1.7-1.5,3-2.8,3.9
			c-1.3,1-2.9,1.4-4.9,1.4c-2,0-3.6-0.5-4.8-1.5c-1.3-1-2.2-2.3-2.9-4c-0.6-1.7-1-3.6-1-5.6s0.3-3.9,1-5.6c0.6-1.7,1.6-3,2.9-4
			c1.3-1,3-1.5,5-1.5c2,0,3.5,0.5,4.7,1.4c1.2,0.9,2.2,2.2,2.8,3.9c0.6,1.7,0.9,3.6,0.9,5.8S959.5,819.2,958.9,820.8L958.9,820.8z"
			/>
		<path class="st0" d="M973.9,794.1v-5.9h6.1v5.9H973.9z M973.9,830.8v-31.5h6.1v31.5H973.9z"/>
		<path class="st0" d="M1017.1,816.8c0.2-3.8-0.2-7-1.3-9.8c-1.1-2.8-2.8-4.9-5.1-6.3c-2.2-1.5-5-2.2-8.2-2.2s-5.8,0.7-8.1,2.1
			c-2.3,1.4-4.1,3.3-5.4,5.9c-1.3,2.5-1.9,5.5-1.9,9c0,3.3,0.7,6.1,2,8.6c1.3,2.5,3.2,4.4,5.5,5.8c2.4,1.4,5.1,2.1,8.3,2.1
			c3.1,0,5.8-0.8,8.3-2.3s4.3-3.7,5.6-6.6l-6-1.9c-0.8,1.6-1.9,2.9-3.3,3.7c-1.4,0.9-3,1.3-4.9,1.3c-2.9,0-5.1-1-6.7-2.9
			c-1.3-1.6-2-3.7-2.2-6.3H1017.1L1017.1,816.8z M993.7,812c0.3-2.2,1-4,2.1-5.3c1.5-1.9,3.8-2.9,6.9-2.9c2.8,0,4.8,0.9,6.2,2.6
			c1,1.3,1.7,3.2,1.9,5.6H993.7L993.7,812z"/>
		<path class="st0" d="M1035.7,831.7c-3.8,0-7-0.8-9.4-2.5s-3.9-4.1-4.4-7.2l6.2-1c0.4,1.6,1.3,2.9,2.7,3.9c1.4,1,3.2,1.4,5.3,1.4
			c1.9,0,3.4-0.4,4.5-1.2c1.1-0.8,1.6-1.8,1.6-3.2c0-0.8-0.2-1.4-0.6-1.9s-1.2-1-2.4-1.4c-1.2-0.4-3-1-5.5-1.7
			c-2.7-0.7-4.8-1.5-6.4-2.3c-1.6-0.8-2.7-1.8-3.4-2.8c-0.7-1.1-1-2.4-1-3.9c0-1.9,0.5-3.6,1.5-5c1-1.4,2.4-2.5,4.3-3.3
			c1.8-0.8,4-1.2,6.5-1.2s4.6,0.4,6.5,1.1c1.9,0.8,3.4,1.8,4.6,3.2c1.2,1.4,1.9,3,2.1,4.9l-6.2,1.1c-0.2-1.5-0.9-2.7-2.1-3.6
			c-1.2-0.9-2.8-1.4-4.7-1.4c-1.8-0.1-3.3,0.2-4.5,0.9s-1.7,1.7-1.7,2.9c0,0.7,0.2,1.3,0.7,1.8c0.4,0.5,1.3,1,2.6,1.4
			c1.3,0.4,3.1,1,5.6,1.6c2.6,0.7,4.8,1.4,6.3,2.3c1.6,0.8,2.7,1.8,3.3,2.9s1,2.5,1,4.1c0,3.1-1.1,5.6-3.4,7.3
			C1042.9,830.8,1039.7,831.7,1035.7,831.7L1035.7,831.7z"/>
	</g>
</g>
</svg>
