<?xml version="1.0" encoding="utf-8"?>
<!-- Generator: Adobe Illustrator 23.0.0, SVG Export Plug-In . SVG Version: 6.00 Build 0)  -->
<svg version="1.1" id="a" xmlns="http://www.w3.org/2000/svg" xmlns:xlink="http://www.w3.org/1999/xlink" x="0px" y="0px"
	 viewBox="0 0 1080 874.5" style="enable-background:new 0 0 1080 874.5;" xml:space="preserve">
<style type="text/css">
	.st0{fill:#1D1D1B;}
</style>
<g>
	<g>
		<g>
			<path class="st0" d="M383.7,489.2c5.8-1,9.8-4.8,10.7-10.4c1.1-6.7-1.4-12.2-6.6-14.5c-2.3-1.1-5.1-1.7-7.9-1.7
				c-7.1-0.2-14.3-0.1-21.4-0.1h-7.7c-1.9,0-1.9,0.1-1.9,1.9v25.2h30.4C380.7,489.5,382.1,489.4,383.7,489.2L383.7,489.2z"/>
			<path class="st0" d="M480.8,531.5c10.5-0.4,18.2-5.2,23.3-14.5c3.7-6.5,5.3-13.6,5.4-22.1c-0.1-3.8-0.7-9.6-3.2-15.9
				c-2.6-6.7-5.9-11.2-10.4-14.2c-4.1-2.8-9-4.2-15.4-4.6c-0.9,0-1.8-0.1-2.6-0.1c-11.9,0-20.3,4.7-25.4,14.5
				c-6.3,11.9-7,24.5-2,37.5c2.5,6.5,5.8,11.2,10.3,14.5C466,530.2,472.4,531.7,480.8,531.5L480.8,531.5z"/>
			<path class="st0" d="M956,390.8H730.3l-48.7-62.6L893,306.4c10.6-1,16.3-12.8,10.4-21.8c-67.8-104-184.5-171.8-314.4-173.8
				l-1-5.9c-4.2-24.7-17.8-46.3-38.1-60.6s-45-20-69.7-15.8c-24.5,3.9-46,17.6-60.6,37.8c-13.8,19.8-19.5,43.5-16.1,67.3
				c-75.2,22.5-140.2,66.8-187.7,125.4c-24.7,30.4-45,65-59.6,101.9c-3.9,9.9,3.9,20.5,14.6,19.3l498.8-50.7l-71.2,61.3H123.2
				c-51.7,0-93.5,41.8-93.5,93.5s41.8,93.2,93.5,93.2h27.7v57.1c0,60.6,49,109.6,109.6,109.6H812c60.3,0,109.6-49,109.6-109.6v-57.1
				H956c51.7,0,93.5-41.8,93.5-93.2C1049.5,432.8,1007.7,390.8,956,390.8L956,390.8z M454,90.8c8.2-11.1,19.8-18.5,33.4-20.8
				c13.4-2.2,26.9,0.7,38.1,8.7c11.4,7.9,18.5,19.8,21,33.1v0.5c-1,0-2.2,0.3-3.2,0.3l-69,6.9c-9.9,1.2-19.8,2.5-29.4,4.2
				C443.9,112.1,447.1,100.7,454,90.8L454,90.8z M424.1,311.4l-20.3,2.5l-11.1-90.3l-35.6,4.5l-2.5-20.3l60.1-7.4l30.9-3.7l0.7,5.7
				l1.7,14.3l-35.1,4.2L424.1,311.4L424.1,311.4z M548.5,296l-5.7-45l-49.7,6.2l5.7,45l-20.3,2.5l-13.6-110.5l20-2.5l5.7,45.3
				l49.7-6.2l-5.4-45l20.3-2.5l13.6,110.3L548.5,296L548.5,296z M646.9,284.2c-12.6,1.5-25.2,3-37.8,4.7h-0.3
				c-5.4,0.7-11.4-1-15.8-4.5c-4.7-3.5-7.4-8.4-8.2-14.6l-2.5-19.3c-2-16.1-3.9-32.2-5.9-48.2c-0.7-5.9,0.7-11.4,4.5-16.1
				c3.5-4.5,8.9-7.7,14.6-8.2c12.6-1.5,25.5-3,38.1-4.7l20-2.5l2.5,20.3L599,198c-1.5,0.3-2,0.5-2,0.5s-0.3,0.5,0,2.2l3,22.7
				l55.4-6.9l2.5,20.5l-55.4,6.7l2.7,22.5c0.3,2,0.5,2.2,0.5,2.2s0.3,0,2-0.3l57.1-6.9l2.5,20.3L646.9,284.2L646.9,284.2z
				 M150.9,535.4h-27.7c-28.4,0-51.2-23-51.2-51.2c0-28.2,22.7-51.4,51.2-51.4h27.7V535.4L150.9,535.4z M638.8,391h0.3l-0.3,0.3V391
				z M335.8,449.1c3.9-3.7,9.2-5.7,14.3-5.7H381c6.9,0,13.1,1.5,18.5,4.9c1.7,1,3.2,2.2,4.7,3.5c0.7,0.7,1.5,1.7,2.2,2.5
				c0.3,0.3,0.7,0.7,1,1.2c0.3,0.3,0.5,0.7,0.7,1c0.3,0.5,0.7,1,1,1.7c0.7,1.2,1.5,2.5,2,3.9c0.3,0.3,0.3,0.7,0.5,1.2
				c0,0.3,0.3,0.5,0.3,0.7c0.3,0.3,0.3,0.7,0.3,1.2c0.3,0.3,0.5,0.7,0.5,1.2c0,0.3,0.3,0.3,0.3,0.5c0.3,0.5,0.3,1,0.5,1.7
				c2.2,9.2,0,19-5.4,26.5c-1,1.2-1.7,2.2-2.7,3.2c-1.7,2-3.9,3.7-6.4,5.2c0,0.3-0.3,0.5-0.7,0.7l20.8,43.3h-0.3l-3.9,0.5h-15
				c-0.3-0.1-0.7-0.1-0.9-0.3h-0.3c-0.7-0.3-1.2-0.5-1.5-1c-0.3-0.3-0.5-0.5-0.5-0.7c-0.3-0.3-0.3-0.5-0.3-0.7l-6.9-14.3l-9.6-21
				c-0.3-0.3-0.5-0.5-0.7-0.7c0-0.3-0.3-0.5-0.5-0.5c-0.3-0.3-0.7-0.3-1.5-0.3H349v39.6h-19v-27.2c0-18.8,0-38.1-0.3-57.1
				C329.6,458.2,331.9,453,335.8,449.1L335.8,449.1z M273,627.2c1.2,1.7,2.7,3.5,3.9,5.4c1.2,1.7,2.5,3.5,3.9,5.2
				c2.7,3.9,5.4,8.2,8.4,11.9c3.9,5.7,7.9,11.4,11.9,17.1l8.9,12.9l-4.2,0.5H299c-3.2,0-6.4,0-9.6,0.3h-0.3c-0.3,0-0.7,0-1-0.3
				c-0.5,0-0.7,0-1-0.3h-0.3c-0.5-0.3-1.2-0.7-1.7-1.2c-0.3-0.3-0.5-0.7-1-1c-7.9-11.6-16.1-23-24.2-34.4l-8.2-11.4
				c-0.3-0.7-0.5-1-0.7-1.2h-0.7l-1.7,1.7c-3.9,3.7-7.7,7.4-11.6,11.4v36.4h-20.3V570.8h20v45c7.4-7.2,14.6-14.6,21.8-21.5
				c7.4-7.4,14.8-14.6,22-21.8c1.2-1.2,2.7-2,4.7-2c4.2,0.3,8.4,0.3,12.8,0h13l-46,45.8C267.8,619.7,270.5,623.4,273,627.2
				L273,627.2z M314.8,511.9c-0.3,5.4-1.5,10.4-3.5,14.6c-1,2.2-2.2,4.2-3.5,6.2c-1.5,1.7-2.7,3.5-4.5,4.9
				c-6.2,6.2-14.1,10.1-21.8,11.6c-4.9,1-9.9,1.5-14.3,1.5c-5.4,0-10.4-0.5-15.3-2c-6.9-1.7-12.6-4.7-17.6-9.2
				c-0.7-0.5-1.5-1.2-2.2-2l-0.7-0.7c-0.3-0.5-0.7-1-1.2-1.7c-0.2,0-0.3-0.1-0.3-0.3c-0.5-0.5-1-1-1.5-1.7c-0.3-0.3-0.3-0.5-0.5-0.7
				l-0.3-0.3c0,0,0-0.3-0.3-0.5c-0.7-1-1.5-2.2-2.2-3.5c-0.3-0.5-0.5-1-0.7-1.5c-0.5-0.7-0.7-1.2-1-2c-0.3-0.5-0.5-0.7-0.7-1.2
				c-4.9-11.1-6.9-22.5-5.7-33.9c1-10.1,3.9-19,8.7-26.7c2-3.2,4.2-6.2,6.7-8.9c7.4-7.7,17.6-12.1,29.4-12.9c11.6-1,22,0.7,31.4,4.9
				c4.5,2,8.2,4.7,11.9,8.2c1.2,0.7,2.5,2.2,3.7,3.5c0.3,0.3,0.5,0.7,0.7,1l1.2,1.7l-1.2,2h-0.3l-13.1,12.1l-2-3.2
				c-0.3-0.3-0.3-0.5-0.5-0.7c-6.9-6.9-15.3-10.6-25.5-10.6c-2.2,0-4.2,0.3-6.4,0.5c-4.2,0.5-7.9,1.7-11.1,3.9
				c-5.2,3.2-8.9,8.9-11.6,16.6c-4.2,12.6-3,24.7,3.5,36.4c1.2,2.5,2.7,4.5,4.5,6.2c5.7,5.9,13.4,8.4,23.5,7.9
				c6.2-0.5,11.4-2,15.6-4.9c1.5-0.7,2.7-2,3.9-3.2c3.5-3.5,5.2-8.2,5.4-13.6c0-0.7-0.3-1-0.3-1s-0.3-0.3-1-0.3h-33.6v-19.3h33.1
				c5.9-0.3,11.1,2,15.1,6.2c3.7,3.7,5.9,9.2,5.9,14.8L314.8,511.9L314.8,511.9z M341.3,680.1h-20V570.8h20V680.1L341.3,680.1z
				 M444.4,590.6h-34.9v89.5h-20.3v-89.5h-35.1v-19.8h90.3L444.4,590.6L444.4,590.6z M442.9,537.4c-1-1-2-2.2-3-3.5
				c-1-1.2-2-2.5-3-3.9c-0.7-1.2-1.7-2.7-2.5-4.2c-0.7-1.5-1.2-3-2-4.7c-4.2-10.6-5.9-20.8-4.7-30.9c1.2-11.9,4.7-21.8,10.4-30.2
				c1.7-2.5,3.5-4.7,5.4-6.4c0.7-1,1.5-1.7,2.5-2.2c0.7-0.7,1.5-1.2,2.2-2c1.7-1,3.5-2.2,5.2-3.2h0.3c0.7-0.3,1.5-0.7,2.5-1.2
				c1-0.3,1.7-0.7,2.5-1h0.3c2.2-0.7,4.5-1.5,6.9-2c8.2-1.5,16.6-1.5,24.7,0c1.5,0.3,3,0.7,4.5,1c0.5,0.3,1.2,0.5,2,0.7
				c0.7,0.3,1.5,0.5,2.5,1c0.7,0.3,1.5,0.5,2.2,1c0,0,0.3,0,0.5,0.3c1,0.3,1.7,0.7,2.7,1.2c0.5,0.5,1.2,0.7,2,1.5c1,0.5,2,1.2,3,2
				c1.5,1.2,2.7,2.5,3.9,3.7c1,1,2,2,2.7,3.2c0.3,0.3,0.7,0.7,1,1c0.5,0.7,1,1.5,1.5,2.5c0.5,0.7,1.2,1.5,1.7,2.2
				c1,1.7,2,3.5,2.7,5.4c4.9,10.6,6.9,21.8,5.7,33.1c-1,10.9-4.2,20.5-9.6,28.7c-1,1.5-1.7,2.7-3,3.9c-1,1.5-2,2.5-3.2,3.7
				c-6.7,6.7-15.6,10.6-26.2,12.1c-2.2,0-4.2,0.3-5.9,0.3l-2,0.3c-12.1-0.3-20.5-2.2-27.7-6.4c-1.7-1.2-3.5-2.2-4.9-3.5
				C445.4,539.7,444.2,538.7,442.9,537.4L442.9,537.4z M544.3,653.1c-0.7,1.7-1.5,3.7-2.2,5.4c-1,1.7-1.7,3.2-2.7,4.7s-2,3-3,4.2
				c-1.2,1.2-2.2,2.5-3.5,3.7c-0.7,0.7-1.5,1.2-2.2,1.7c-0.7,0.7-1.5,1.2-2,1.7c-2.7,1.7-5.7,3.2-8.9,4.5c-1.5,0.7-3.2,1.2-4.7,1.5
				c-1.7,0.5-3.7,1-5.4,1.2c-3.5,0.5-6.7,0.7-9.9,0.7c-5.2,0-10.6-0.7-15.8-2c-1.2-0.3-2.2-0.5-3.2-1s-2-0.7-3-1.2
				c-0.5-0.3-1.2-0.5-1.7-0.7c-1-0.3-1.7-0.7-2.7-1.2c-2-1.2-3.9-2.5-5.9-3.9c-0.5-0.5-1-1-1.7-1.5c-1.2-1.2-2.5-2.5-3.5-3.9
				c-0.7-0.5-1-1-1.2-1.5c-1.2-1.2-2.5-2.7-3.5-4.5c-0.7-1.2-1.2-2.5-2-3.9c-0.3-0.5-0.7-1-0.7-1.5c-5.9-12.1-8.2-24.5-6.9-36.6
				c1.5-11.4,4.7-21,10.1-29.4c2.2-3.5,4.5-6.2,7.2-8.7c0.3-0.5,0.3-0.7,0.5-0.7c0.7-0.7,1.5-1.2,2.2-1.7c0.3-0.3,0.3-0.5,0.5-0.5
				c1-0.7,2-1.2,2.7-2c2-1.5,4.2-2.5,6.4-3.5c0.7-0.5,1.2-0.7,2.2-1c1.2-0.5,2.2-1,3.7-1.2c0.3-0.3,0.5-0.3,0.7-0.3
				c1.7-0.5,3.7-1,5.4-1.2c1.7-0.3,3.5-0.5,5.2-0.5c9.9-0.7,17.8,0.3,25.2,3.2c5.7,2.2,10.4,5.2,14.3,9.4c3.7,3.9,6.9,8.9,9.2,14.8
				c0.5,1,0.7,1.7,1,2.7l1.2,3.9h-0.3l-19.3,4.7l-1.2-3.5c-0.5-1-0.7-1.7-1-2.7c-1.5-3-3.2-5.7-5.4-7.7c-1.2-0.7-2.7-1.7-3.9-2.5
				c-1.5-0.7-3-1-4.7-1.5c-8.4-2.2-16.1-1.7-23,1.2c-0.5,0.5-1.2,0.7-2,1.2c-0.7,0.3-1.2,0.7-2,1c-1.5,1-2.5,2-3.7,3l-2.2,2.2
				c-2.7,3.2-4.7,6.9-6.2,11.4c-3.7,12.6-3,24.7,2.2,35.9c0.3,1,0.7,2,1.5,3c0.5,0.7,1.2,1.7,1.7,2.7c0.7,0.7,1.2,1.5,2,2.5
				c0.5,0.5,1,1,1.5,1.2c0.5,0.5,1,1,1.5,1.5s1.2,1,2,1.5c0.7,0.3,1.2,0.7,1.7,1c0,0.3,0.3,0.3,0.5,0.3c1.5,1,3.2,1.7,4.7,2.2h0.3
				c0.5,0.3,1,0.5,1.5,0.5c0.7,0.3,1.5,0.3,2.2,0.3c0.2,0.2,0.3,0.3,0.5,0.3c0.5,0,1,0.3,1.7,0.3c2.5,0.3,4.9,0.3,7.7,0
				c3.7-0.5,6.7-1.2,9.4-2.2c1-0.5,2-1,2.7-1.2c2.7-1.7,5.2-4.2,6.9-7.4c0.7-1.5,1.5-3,2-4.9l0.7-1.7l1-1.5l3,0.5l16.3,4.2h0.3
				l-2,5.2V653.1z M653.3,680.1h-20v-44.8h-49.2v44.8h-20.3V570.8h20v44.5H633v-44.5h20.3V680.1L653.3,680.1z M647.6,535.4
				c-2,7.9-9.4,13.1-18.1,12.9c-7.9,0-15.1-5.9-16.6-13.6c-2.5-10.9-4.7-21.8-6.9-32.4l-6.9-31.6l-9.4,43.5
				c-1.5,6.4-2.7,12.6-4.2,19c-1.5,7.9-7.7,14.1-14.8,15.1c-1,0-2,0.3-3,0.3c-6.9,0-13.1-3.7-16.1-9.9c-1.2-3-2-5.9-2.7-8.9v-1.2
				c-2.7-11.9-5.2-23.5-7.7-35.4l-9.6-45.3c0-0.3-0.3-0.7-0.3-1l-0.7-3.5h19.5l17.6,80.9c0-0.7,0.3-1.2,0.5-2l9.2-43.8
				c1.7-7.2,3.2-14.3,4.9-21.8c2-8.2,8.4-13.4,16.8-13.4c8.4,0,15.1,5.7,16.8,13.6c1.7,8.7,3.7,17.6,5.7,26.5l8.7,40.8l0.3-0.5
				l26.5-124.9l1.7-8.2h-19.5l34.4-29.4l23,29.4h-18.1l-1.7,8.2L665,454.1L647.6,535.4L647.6,535.4z M750.8,680.1h-20.3
				c-12.4,0-25,0-37.3,0.3h-0.3c-5.4,0-10.9-2.5-14.8-6.4c-4.2-3.9-6.2-9.4-6.2-15.1v-67c0-3,0.5-5.9,1.5-8.7
				c0.7-1.2,1.5-2.5,2.2-3.7c0.3-0.3,0.5-0.7,1-1.2c0.3-0.5,0.7-1,1.2-1.2c0.3-0.3,0.3-0.5,0.5-0.5c2.5-2.5,5.4-4.2,8.9-5.2
				c1.5-0.3,3-0.5,4.7-0.5c15.1-0.3,30.2-0.3,45.3,0l12.9,0.3h0.3l0.3,2.2v17.3h-57.6c-0.3,0-0.6,0.1-0.7,0.3
				c-0.3,0.3-0.3,0.3-0.3,2v22.7H747v20h-54.9v23c0,0.7,0,1.2,0.3,1.5s0.7,0.3,1.5,0.3H751L750.8,680.1L750.8,680.1z M756.2,462.5
				h-33.4v85.8h-19.3v-85.8h-30.7l3.9-19h79.4L756.2,462.5L756.2,462.5z M855.4,661.8c0,0.5,0,1.5-0.3,2v1.2c-0.3,1-0.5,2-1,3
				c0,1-0.5,1.7-1,2.5v0.3c-0.7,1.2-1.5,2-2.2,3c-0.3,0.7-0.7,1.2-1.2,1.5l-1.5,1.5c-1,0.7-1.7,1.2-2.5,1.5c-0.7,0.3-1.5,0.7-2,1
				c-0.7,0.3-1.5,0.5-2.5,0.7c-1.2,0.3-2.5,0.5-3.7,0.5c-1.5,0-3-0.3-4.5-0.7c-0.7,0-1.2-0.3-1.7-0.5c-2-0.7-3.9-1.7-5.4-3.2
				c-2-2-3.7-3.9-4.7-6.4c-11.1-23.5-22.3-46.7-33.4-70.2v80.9h-20v-91c0-1.5,0-3,0.3-4.2s0.5-2.5,1.2-3.7c0.5-1.2,1-2.2,1.7-3.2
				c0.7-1.2,1.5-2,2.5-3c2.2-2,4.9-3.5,8.2-3.9c2.7-0.7,5.7-0.7,8.4,0.3c0.5,0,1,0.3,1.5,0.3c1,0.5,1.7,1,2.5,1.5
				c1,0.5,1.7,1,2.5,1.7c1,0.5,1.5,1.2,2.2,2c0.7,0.7,1.2,1.5,1.7,2.2s1,1.5,1.2,2.5l33.4,70.5v-81.1h20.3V661.8L855.4,661.8z
				 M855.4,548.3h-19.3v-42.8h-47.2v42.8h-19.3V443.4h19.3v42.8h47.2v-42.5h19.3V548.3L855.4,548.3z M956,535.4h-34.6V432.8H956
				c28.4,0,51.2,23.3,51.2,51.4C1007.2,512.4,984.5,535.4,956,535.4L956,535.4z"/>
		</g>
		<g>
			<path class="st0" d="M874.7,364.2c62.3-12.9,74-53.5,46.5-108.4c-10.7-24.3-20.9-51.9-15.1-81c4.5-28.4,31.1-50.5,59-51.5
				c-39,14.2-52.1,51.9-39.5,89.3c4.9,17.1,14.9,37.4,21.2,54.1C966.9,323.7,936.2,369.5,874.7,364.2L874.7,364.2L874.7,364.2z"/>
			<path class="st0" d="M968,237.9c-33.7-24.9-28.1-80.8,15.3-90.3C955.6,176.7,957.1,202.9,968,237.9L968,237.9z"/>
		</g>
	</g>
	<g>
		<path class="st0" d="M49.3,832.3c-4.2,0-7.8-0.9-10.8-2.8c-3-1.8-5.2-4.4-6.8-7.7s-2.4-7.1-2.4-11.5s0.8-8.2,2.4-11.5
			c1.6-3.3,3.8-5.9,6.8-7.7s6.6-2.8,10.8-2.8c4.9,0,8.9,1.2,12.1,3.7s5.4,5.8,6.7,9.9l-6.2,1.7c-0.8-3-2.3-5.3-4.4-6.9
			c-2.1-1.7-4.8-2.5-8.2-2.5c-3,0-5.5,0.7-7.5,2s-3.5,3.2-4.5,5.6c-1,2.4-1.5,5.2-1.5,8.5c0,3.2,0.5,6.1,1.5,8.5s2.5,4.3,4.5,5.6
			s4.5,2,7.5,2c3.3,0,6.1-0.8,8.2-2.5c2.1-1.7,3.6-4,4.4-6.9l6.2,1.7c-1.3,4.2-3.5,7.5-6.7,9.9C58.2,831,54.2,832.3,49.3,832.3
			L49.3,832.3z"/>
		<path class="st0" d="M88.3,832.3c-3.2,0-5.9-0.7-8.2-2.1c-2.3-1.4-4.1-3.4-5.4-5.9s-1.9-5.4-1.9-8.7s0.6-6.2,1.9-8.7
			s3.1-4.5,5.4-5.9s5-2.1,8.2-2.1s5.9,0.7,8.2,2.1c2.3,1.4,4.1,3.4,5.4,5.9s1.9,5.4,1.9,8.6c0,3.2-0.6,6.2-1.9,8.7s-3.1,4.5-5.4,5.9
			S91.5,832.2,88.3,832.3L88.3,832.3z M88.3,826.5c3,0,5.3-1,6.8-3.1c1.5-2,2.3-4.7,2.3-7.9s-0.8-5.9-2.3-7.9s-3.8-3-6.8-3
			c-2.1,0-3.7,0.5-5.1,1.4c-1.3,0.9-2.3,2.2-3,3.8c-0.6,1.6-1,3.5-1,5.7c0,3.3,0.8,6,2.3,8C83.1,825.5,85.4,826.5,88.3,826.5
			L88.3,826.5z"/>
		<path class="st0" d="M124,832.3c-3.2,0-5.9-0.7-8.2-2.1c-2.3-1.4-4.1-3.4-5.4-5.9s-1.9-5.4-1.9-8.7s0.6-6.2,1.9-8.7
			s3.1-4.5,5.4-5.9s5-2.1,8.2-2.1s5.9,0.7,8.2,2.1c2.3,1.4,4.1,3.4,5.4,5.9c1.3,2.5,1.9,5.4,1.9,8.6c0,3.2-0.6,6.2-1.9,8.7
			c-1.3,2.5-3.1,4.5-5.4,5.9C129.9,831.5,127.2,832.2,124,832.3L124,832.3z M124,826.5c3,0,5.3-1,6.8-3.1c1.5-2,2.3-4.7,2.3-7.9
			s-0.8-5.9-2.3-7.9s-3.8-3-6.8-3c-2.1,0-3.7,0.5-5.1,1.4c-1.3,0.9-2.3,2.2-3,3.8c-0.6,1.6-1,3.5-1,5.7c0,3.3,0.8,6,2.3,8
			C118.8,825.5,121.1,826.5,124,826.5L124,826.5z"/>
		<path class="st0" d="M146,831.4v-42.2h6.2V815l12.4-15.2h7.8l-13.1,15.8l14.5,15.8h-8.3l-13.3-15.2v15.1L146,831.4L146,831.4z"/>
		<path class="st0" d="M177.3,794.5v-5.9h6.1v5.9H177.3z M177.3,831.4v-31.7h6.1v31.7H177.3z"/>
		<path class="st0" d="M220.7,813.8v17.6h-6.2v-15.6c0-1.2-0.1-2.5-0.3-3.8s-0.6-2.5-1.2-3.6c-0.6-1.1-1.4-2-2.4-2.7s-2.4-1-4.1-1
			c-1.1,0-2.1,0.2-3.1,0.5c-1,0.4-1.8,1-2.6,1.7c-0.7,0.8-1.3,1.9-1.7,3.2s-0.6,2.9-0.6,4.8v16.5h-6.2v-31.6h5.5v3.8
			c0.9-1.1,1.9-2.1,3.2-2.8c2-1.2,4.5-1.8,7.3-1.8c2.2,0,4,0.3,5.5,1s2.7,1.6,3.6,2.8c0.9,1.1,1.6,2.4,2.1,3.7s0.8,2.7,1,3.9
			S220.7,812.8,220.7,813.8L220.7,813.8z"/>
		<path class="st0" d="M250.3,799.7v2.8c-0.6-0.6-1.1-1.1-1.8-1.6c-2-1.5-4.5-2.2-7.5-2.2s-5.5,0.7-7.7,2.2s-3.8,3.4-5,5.9
			s-1.8,5.4-1.8,8.6s0.6,6,1.8,8.5c1.1,2.5,2.8,4.5,4.9,6c2.1,1.5,4.7,2.2,7.6,2.2c3,0,5.6-0.7,7.6-2.2c0.4-0.3,0.7-0.6,1.1-0.9v3
			c0,1.8-0.3,3.3-0.9,4.6c-0.6,1.2-1.6,2.1-2.8,2.8c-1.2,0.6-2.7,0.9-4.5,0.9c-1.4,0-2.7-0.3-4-0.9c-1.3-0.6-2.3-1.6-2.9-3l-5.6,2.9
			c0.8,1.5,1.9,2.8,3.2,3.8s2.8,1.8,4.4,2.3c1.6,0.5,3.2,0.8,4.9,0.8c2.5,0,4.7-0.3,6.6-1c1.9-0.7,3.5-1.7,4.8-3.1
			c1.3-1.4,2.1-3.2,2.6-5.3c0.1-0.8,0.3-1.5,0.3-2.3c0.1-0.8,0.1-1.6,0.1-2.4v-32.5L250.3,799.7L250.3,799.7z M249.4,821.3
			c-0.6,1.7-1.5,3-2.8,3.9c-1.3,1-2.9,1.4-4.9,1.4s-3.6-0.5-4.8-1.5c-1.3-1-2.2-2.3-2.9-4c-0.6-1.7-1-3.6-1-5.7c0-2.1,0.3-3.9,1-5.6
			c0.6-1.7,1.6-3,2.9-4c1.3-1,3-1.5,5-1.5c1.9,0,3.5,0.5,4.7,1.4s2.2,2.3,2.8,3.9c0.6,1.7,0.9,3.6,0.9,5.8S250,819.6,249.4,821.3
			L249.4,821.3z"/>
		<path class="st0" d="M292.8,799.7v5.7c-1-0.3-2.2-0.4-3.5-0.2c-1.3,0.1-2.4,0.5-3.5,1.2c-1,0.6-1.8,1.4-2.4,2.3
			c-0.6,0.9-1,1.9-1.3,3.1c-0.3,1.1-0.4,2.3-0.4,3.6v16h-6.2v-31.6h5.5v5c0.2-0.4,0.5-0.8,0.7-1.2c0.6-0.8,1.4-1.5,2.2-2.1
			c0.8-0.6,1.7-1,2.7-1.4c1-0.3,2-0.5,3-0.6C290.8,799.5,291.8,799.5,292.8,799.7L292.8,799.7z"/>
		<path class="st0" d="M311.5,832.3c-3.2,0-5.9-0.7-8.2-2.1s-4.1-3.4-5.4-5.9s-1.9-5.4-1.9-8.7s0.6-6.2,1.9-8.7s3.1-4.5,5.4-5.9
			s5-2.1,8.2-2.1s5.9,0.7,8.2,2.1c2.3,1.4,4.1,3.4,5.4,5.9s1.9,5.4,1.9,8.6c0,3.2-0.6,6.2-1.9,8.7s-3.1,4.5-5.4,5.9
			C317.4,831.5,314.6,832.2,311.5,832.3L311.5,832.3z M311.5,826.5c3,0,5.3-1,6.8-3.1c1.5-2,2.3-4.7,2.3-7.9s-0.8-5.9-2.3-7.9
			s-3.8-3-6.8-3c-2.1,0-3.7,0.5-5.1,1.4c-1.3,0.9-2.3,2.2-3,3.8c-0.6,1.6-1,3.5-1,5.7c0,3.3,0.8,6,2.3,8
			C306.3,825.5,308.6,826.5,311.5,826.5L311.5,826.5z"/>
		<path class="st0" d="M360.9,807c-1.2-2.5-2.8-4.5-5-5.9c-2.1-1.5-4.7-2.2-7.7-2.2s-5.5,0.7-7.5,2.2c-0.4,0.3-0.7,0.6-1.1,0.9
			v-12.7h-6.2v42.2h5.5v-2.9c0.6,0.6,1.2,1.1,1.8,1.6c2,1.5,4.6,2.2,7.6,2.2s5.5-0.7,7.6-2.2s3.8-3.5,4.9-6c1.2-2.5,1.8-5.4,1.8-8.5
			C362.7,812.4,362.1,809.5,360.9,807L360.9,807z M355.2,821.2c-0.6,1.7-1.6,3-2.9,4s-2.9,1.5-4.8,1.5s-3.7-0.5-4.9-1.4
			c-1.3-1-2.2-2.3-2.8-3.9c-0.6-1.7-0.9-3.6-0.9-5.8s0.3-4.1,0.9-5.8s1.5-3,2.8-3.9c1.2-0.9,2.8-1.4,4.7-1.4c2,0,3.7,0.5,5,1.5
			s2.3,2.3,2.9,4s1,3.6,1,5.6C356.1,817.6,355.8,819.5,355.2,821.2L355.2,821.2z"/>
		<path class="st0" d="M396.9,799.7v31.6h-5.4v-3.8c-0.9,1.1-1.9,2.1-3.2,2.8c-2,1.2-4.5,1.8-7.3,1.8c-2.2,0-4-0.3-5.5-1
			s-2.7-1.6-3.6-2.8c-0.9-1.1-1.6-2.4-2.1-3.7s-0.8-2.7-1-3.9c-0.2-1.3-0.3-2.4-0.3-3.4v-17.6h6.2v15.6c0,1.2,0.1,2.5,0.3,3.8
			c0.2,1.3,0.6,2.5,1.2,3.6s1.4,2,2.4,2.7c1.1,0.7,2.4,1,4.1,1c1.1,0,2.1-0.2,3.1-0.6c1-0.3,1.8-0.9,2.6-1.7
			c0.7-0.8,1.3-1.8,1.7-3.2c0.4-1.3,0.6-2.9,0.6-4.8v-16.5L396.9,799.7L396.9,799.7z"/>
		<path class="st0" d="M417.3,832.2c-3.8,0-7-0.8-9.4-2.5s-3.9-4.1-4.5-7.2l6.3-1c0.4,1.6,1.3,2.9,2.7,3.9s3.2,1.4,5.3,1.4
			c1.9,0,3.4-0.4,4.5-1.2s1.6-1.8,1.6-3.2c0-0.8-0.2-1.4-0.6-2c-0.4-0.5-1.2-1-2.4-1.4c-1.2-0.4-3.1-1-5.5-1.7
			c-2.7-0.7-4.9-1.5-6.5-2.3s-2.7-1.8-3.4-2.8s-1-2.4-1-3.9c0-1.9,0.5-3.6,1.5-5s2.4-2.5,4.3-3.3c1.8-0.8,4-1.2,6.5-1.2
			s4.6,0.4,6.5,1.1c1.9,0.8,3.4,1.8,4.6,3.2s1.9,3,2.1,4.9l-6.3,1.1c-0.2-1.5-0.9-2.7-2.1-3.6c-1.2-0.9-2.8-1.4-4.7-1.4
			c-1.8-0.1-3.4,0.2-4.5,0.9s-1.7,1.7-1.7,2.9c0,0.7,0.2,1.3,0.7,1.8c0.4,0.5,1.3,1,2.6,1.4c1.3,0.4,3.1,1,5.6,1.6
			c2.7,0.7,4.8,1.4,6.3,2.3c1.6,0.8,2.7,1.8,3.4,3c0.7,1.1,1,2.5,1,4.1c0,3.1-1.1,5.6-3.4,7.3C424.4,831.3,421.3,832.2,417.3,832.2
			L417.3,832.2z"/>
		<path class="st0" d="M445.3,804.6v14c0,1.3,0,2.4,0,3.3c0,0.9,0.2,1.7,0.6,2.4c0.7,1.2,1.8,1.9,3.4,2.1c1.5,0.2,3.3,0.1,5.4-0.2
			v5.2c-2,0.4-3.9,0.6-5.9,0.5c-1.9-0.1-3.6-0.4-5.1-1.1c-1.5-0.7-2.6-1.8-3.4-3.2c-0.7-1.3-1-2.6-1.1-4c0-1.4-0.1-2.9-0.1-4.6
			v-14.3H433v-4.9h6.1V791h6.2v8.8h9.4v4.9L445.3,804.6L445.3,804.6z"/>
		<path class="st0" d="M517.2,810.2v21.2H511v-19.7c0-2.3-0.6-4.1-1.8-5.4c-1.2-1.3-2.7-1.9-4.6-1.9c-1.2,0-2.3,0.3-3.2,0.8
			c-1,0.5-1.8,1.3-2.4,2.4c-0.6,1.1-0.9,2.4-0.9,4v19.8H492v-19.6c0-2.3-0.6-4.1-1.8-5.4c-1.1-1.3-2.7-2-4.7-2s-3.5,0.7-4.7,2
			s-1.8,3.1-1.8,5.2v19.8h-6v-31.6h5.4v3.4c0.9-1.1,2-2.1,3.3-2.8c1.7-0.9,3.6-1.4,5.8-1.4c2.3,0,4.2,0.5,5.8,1.4
			c1.5,0.9,2.7,2.1,3.5,3.7c1-1.6,2.3-2.8,3.9-3.7c1.7-0.9,3.6-1.4,5.7-1.4c3.4,0,6.1,1,7.9,3.1
			C516.2,804.1,517.2,806.8,517.2,810.2z"/>
		<path class="st0" d="M550.4,808.2c-0.1-1.1-0.4-2.3-0.9-3.3c-1-2.1-2.5-3.6-4.6-4.6s-4.6-1.4-7.4-1.4c-3.7,0-6.6,0.8-8.8,2.4
			c-2.2,1.6-3.7,3.8-4.5,6.5l5.7,1.8c0.6-1.8,1.5-3.1,2.9-3.8c1.4-0.8,2.9-1.1,4.6-1.1c2.6,0,4.5,0.6,5.6,1.8
			c0.9,1.1,1.5,2.6,1.6,4.6c-1.2,0.1-2.4,0.3-3.6,0.5c-2,0.3-3.8,0.6-5.6,0.9c-1.8,0.3-3.4,0.7-4.8,1.1c-1.6,0.5-3,1.2-4.1,2.1
			c-1.1,0.8-2,1.9-2.5,3.1c-0.6,1.2-0.8,2.6-0.8,4.2c0,1.7,0.4,3.3,1.2,4.7s2,2.6,3.6,3.5s3.5,1.3,5.9,1.3c3,0,5.4-0.6,7.5-1.8
			c1.5-0.9,2.8-2.1,3.9-3.7v4.6h5.4v-19.5C550.5,810.6,550.5,809.3,550.4,808.2z M544.4,817.8c-0.1,1.2-0.2,2.2-0.6,3.2
			c-0.2,1-0.7,2-1.5,3c-0.7,1-1.8,1.7-3,2.4c-1.3,0.6-2.7,0.9-4.5,0.9c-1.3,0-2.4-0.2-3.2-0.6c-0.8-0.4-1.5-1-1.9-1.7
			s-0.6-1.5-0.6-2.3s0.2-1.6,0.6-2.1c0.4-0.6,0.9-1.1,1.6-1.5c0.7-0.4,1.4-0.8,2.3-1.1c1-0.3,2.1-0.6,3.4-0.8
			c1.3-0.2,2.7-0.4,4.3-0.7c1-0.1,2.1-0.3,3.2-0.5C544.4,816.5,544.4,817.1,544.4,817.8L544.4,817.8z"/>
		<path class="st0" d="M575.3,799.7v5.7c-1-0.3-2.2-0.4-3.4-0.2c-1.3,0.1-2.4,0.5-3.5,1.2c-1,0.6-1.8,1.4-2.4,2.3
			c-0.6,0.9-1,1.9-1.3,3.1c-0.3,1.1-0.4,2.3-0.4,3.6v16h-6.2v-31.6h5.5v5c0.2-0.4,0.5-0.8,0.8-1.2c0.6-0.8,1.3-1.5,2.2-2.1
			c0.8-0.6,1.7-1,2.7-1.4c1-0.3,2-0.5,3-0.6C573.3,799.5,574.3,799.5,575.3,799.7z"/>
		<path class="st0" d="M580.8,831.4v-42.2h6.2V815l12.4-15.2h7.8l-13.1,15.8l14.5,15.8h-8.3L587,816.1v15.2L580.8,831.4L580.8,831.4
			z"/>
		<path class="st0" d="M639.4,817.3c0.2-3.8-0.2-7.1-1.3-9.8c-1.1-2.8-2.8-4.9-5.1-6.4s-5-2.3-8.2-2.3s-5.8,0.7-8.1,2.1
			c-2.3,1.4-4.1,3.4-5.4,5.9c-1.3,2.5-2,5.5-2,9c0,3.3,0.7,6.1,2,8.6s3.2,4.4,5.5,5.8c2.4,1.4,5.1,2.1,8.3,2.1
			c3.1,0,5.9-0.8,8.4-2.3c2.5-1.6,4.4-3.7,5.6-6.6l-6-1.9c-0.8,1.6-1.9,2.9-3.3,3.7c-1.4,0.9-3,1.3-5,1.3c-2.9,0-5.1-1-6.7-2.9
			c-1.3-1.6-2-3.7-2.2-6.3L639.4,817.3L639.4,817.3z M615.9,812.5c0.3-2.2,1-4,2.1-5.3c1.5-1.9,3.8-2.9,6.9-2.9
			c2.8,0,4.8,0.9,6.2,2.6c1,1.3,1.7,3.2,2,5.6L615.9,812.5L615.9,812.5z"/>
		<path class="st0" d="M654.6,804.6v14c0,1.3,0,2.4,0,3.3c0,0.9,0.2,1.7,0.6,2.4c0.7,1.2,1.8,1.9,3.4,2.1c1.5,0.2,3.3,0.1,5.4-0.2
			v5.2c-2,0.4-3.9,0.6-5.9,0.5c-1.9-0.1-3.6-0.4-5.1-1.1c-1.5-0.7-2.6-1.8-3.4-3.2c-0.7-1.3-1-2.6-1.1-4c0-1.4-0.1-2.9-0.1-4.6
			v-14.3h-6.1v-4.9h6.1V791h6.2v8.8h9.4v4.9L654.6,804.6L654.6,804.6z"/>
		<path class="st0" d="M671.3,794.5v-5.9h6.1v5.9H671.3z M671.3,831.4v-31.7h6.1v31.7H671.3z"/>
		<path class="st0" d="M714.6,813.8v17.6h-6.2v-15.6c0-1.2-0.1-2.5-0.3-3.8s-0.6-2.5-1.2-3.6c-0.6-1.1-1.4-2-2.4-2.7s-2.4-1-4.1-1
			c-1.1,0-2.1,0.2-3.1,0.5c-1,0.4-1.8,1-2.5,1.7c-0.7,0.8-1.3,1.9-1.7,3.2s-0.6,2.9-0.6,4.8v16.5h-6.2v-31.6h5.5v3.8
			c0.9-1.1,1.9-2.1,3.2-2.8c2-1.2,4.4-1.8,7.3-1.8c2.2,0,4,0.3,5.5,1s2.7,1.6,3.6,2.8c0.9,1.1,1.6,2.4,2.1,3.7s0.8,2.7,1,3.9
			C714.5,811.7,714.6,812.8,714.6,813.8L714.6,813.8z"/>
		<path class="st0" d="M744.3,799.7v2.8c-0.6-0.6-1.1-1.1-1.8-1.6c-2-1.5-4.5-2.2-7.5-2.2s-5.5,0.7-7.7,2.2c-2.1,1.5-3.8,3.4-5,5.9
			s-1.8,5.4-1.8,8.6s0.6,6,1.7,8.5c1.2,2.5,2.8,4.5,5,6c2.1,1.5,4.7,2.2,7.6,2.2s5.6-0.7,7.6-2.2c0.4-0.3,0.7-0.6,1.1-0.9v3
			c0,1.8-0.3,3.3-0.9,4.6c-0.6,1.2-1.6,2.1-2.8,2.8c-1.2,0.6-2.7,0.9-4.5,0.9c-1.4,0-2.7-0.3-4-0.9c-1.3-0.6-2.3-1.6-2.9-3l-5.6,2.9
			c0.8,1.5,1.9,2.8,3.2,3.8s2.8,1.8,4.4,2.3c1.6,0.5,3.2,0.8,4.9,0.8c2.5,0,4.7-0.3,6.6-1c1.9-0.7,3.5-1.7,4.8-3.1
			c1.3-1.4,2.1-3.2,2.6-5.3c0.1-0.8,0.3-1.5,0.3-2.3c0.1-0.8,0.1-1.6,0.1-2.4v-32.5L744.3,799.7L744.3,799.7z M743.4,821.3
			c-0.6,1.7-1.5,3-2.8,3.9c-1.3,1-2.9,1.4-4.9,1.4s-3.6-0.5-4.8-1.5c-1.3-1-2.3-2.3-2.9-4c-0.6-1.7-1-3.6-1-5.7c0-2.1,0.3-3.9,1-5.6
			c0.6-1.7,1.6-3,2.9-4c1.3-1,3-1.5,5-1.5c1.9,0,3.5,0.5,4.7,1.4s2.2,2.3,2.8,3.9c0.6,1.7,0.9,3.6,0.9,5.8S744,819.6,743.4,821.3
			L743.4,821.3z"/>
		<path class="st0" d="M781.7,832.2c-3.8,0-7-0.8-9.4-2.5s-3.9-4.1-4.5-7.2l6.3-1c0.4,1.6,1.3,2.9,2.7,3.9s3.2,1.4,5.3,1.4
			c1.9,0,3.4-0.4,4.5-1.2s1.6-1.8,1.6-3.2c0-0.8-0.2-1.4-0.6-2c-0.4-0.5-1.2-1-2.4-1.4s-3.1-1-5.5-1.7c-2.7-0.7-4.9-1.5-6.5-2.3
			s-2.7-1.8-3.4-2.8c-0.7-1.1-1-2.4-1-3.9c0-1.9,0.5-3.6,1.5-5s2.4-2.5,4.3-3.3c1.8-0.8,4-1.2,6.5-1.2s4.6,0.4,6.5,1.1
			c1.9,0.8,3.4,1.8,4.6,3.2c1.2,1.4,1.9,3,2.1,4.9l-6.3,1.1c-0.2-1.5-0.9-2.7-2.1-3.6c-1.2-0.9-2.8-1.4-4.7-1.4
			c-1.8-0.1-3.4,0.2-4.5,0.9s-1.7,1.7-1.7,2.9c0,0.7,0.2,1.3,0.7,1.8c0.4,0.5,1.3,1,2.6,1.4s3.1,1,5.6,1.6c2.7,0.7,4.8,1.4,6.3,2.3
			c1.6,0.8,2.7,1.8,3.4,3c0.7,1.1,1,2.5,1,4.1c0,3.1-1.1,5.6-3.4,7.3C788.9,831.3,785.8,832.2,781.7,832.2L781.7,832.2z"/>
		<path class="st0" d="M809.7,804.6v14c0,1.3,0,2.4,0,3.3c0,0.9,0.2,1.7,0.6,2.4c0.7,1.2,1.8,1.9,3.4,2.1c1.5,0.2,3.3,0.1,5.4-0.2
			v5.2c-2,0.4-3.9,0.6-5.9,0.5c-1.9-0.1-3.6-0.4-5.1-1.1c-1.5-0.7-2.6-1.8-3.4-3.2c-0.7-1.3-1.1-2.6-1.1-4s-0.1-2.9-0.1-4.6v-14.3
			h-6.1v-4.9h6.1V791h6.1v8.8h9.4v4.9L809.7,804.6L809.7,804.6z"/>
		<path class="st0" d="M842.9,799.7v5.7c-1-0.3-2.2-0.4-3.4-0.2c-1.3,0.1-2.4,0.5-3.5,1.2c-1,0.6-1.8,1.4-2.4,2.3
			c-0.6,0.9-1,1.9-1.3,3.1c-0.3,1.1-0.4,2.3-0.4,3.6v16h-6.2v-31.6h5.4v5.1c0.2-0.4,0.5-0.8,0.8-1.2c0.6-0.8,1.4-1.5,2.2-2.1
			s1.7-1,2.7-1.4c1-0.3,2-0.5,3-0.6C840.9,799.5,841.9,799.5,842.9,799.7L842.9,799.7z"/>
		<path class="st0" d="M873.2,808.2c-0.1-1.1-0.4-2.3-0.9-3.3c-1-2.1-2.5-3.6-4.6-4.6s-4.6-1.4-7.4-1.4c-3.7,0-6.6,0.8-8.8,2.4
			c-2.2,1.6-3.7,3.8-4.5,6.5l5.7,1.8c0.6-1.8,1.5-3.1,2.9-3.8c1.4-0.8,2.9-1.1,4.6-1.1c2.6,0,4.5,0.6,5.6,1.8
			c0.9,1.1,1.5,2.6,1.6,4.6c-1.2,0.1-2.4,0.3-3.6,0.5c-2,0.3-3.8,0.6-5.6,0.9c-1.8,0.3-3.4,0.7-4.8,1.1c-1.6,0.5-3,1.2-4.1,2.1
			c-1.1,0.8-2,1.9-2.5,3.1c-0.6,1.2-0.8,2.6-0.8,4.2c0,1.7,0.4,3.3,1.2,4.7s2,2.6,3.6,3.5s3.5,1.3,5.9,1.3c3,0,5.4-0.6,7.5-1.8
			c1.5-0.9,2.8-2.1,3.9-3.7v4.6h5.4v-19.5C873.4,810.6,873.3,809.3,873.2,808.2L873.2,808.2z M867.2,817.8c0,1.2-0.2,2.2-0.6,3.2
			c-0.2,1-0.7,2-1.5,3s-1.8,1.7-3,2.4c-1.3,0.6-2.8,0.9-4.5,0.9c-1.3,0-2.4-0.2-3.2-0.6c-0.8-0.4-1.5-1-1.9-1.7s-0.6-1.5-0.6-2.3
			s0.2-1.6,0.6-2.1c0.4-0.6,0.9-1.1,1.6-1.5c0.7-0.4,1.4-0.8,2.3-1.1c1-0.3,2.1-0.6,3.4-0.8c1.3-0.2,2.7-0.4,4.3-0.7
			c1-0.1,2.1-0.3,3.3-0.5C867.2,816.5,867.2,817.1,867.2,817.8L867.2,817.8z"/>
		<path class="st0" d="M889.7,804.6v14c0,1.3,0,2.4,0.1,3.3c0,0.9,0.2,1.7,0.6,2.4c0.7,1.2,1.8,1.9,3.4,2.1c1.5,0.2,3.3,0.1,5.4-0.2
			v5.2c-2,0.4-3.9,0.6-5.9,0.5c-1.9-0.1-3.6-0.4-5.1-1.1c-1.5-0.7-2.6-1.8-3.4-3.2c-0.7-1.3-1.1-2.6-1.1-4s-0.1-2.9-0.1-4.6v-14.3
			h-6.1v-4.9h6.1V791h6.1v8.8h9.4v4.9L889.7,804.6L889.7,804.6z"/>
		<path class="st0" d="M932.7,817.3c0.2-3.8-0.2-7.1-1.3-9.8c-1.1-2.8-2.8-4.9-5.1-6.4s-5-2.3-8.2-2.3s-5.8,0.7-8.1,2.1
			c-2.3,1.4-4.1,3.4-5.4,5.9c-1.3,2.5-2,5.5-2,9c0,3.3,0.7,6.1,2,8.6s3.2,4.4,5.5,5.8c2.4,1.4,5.1,2.1,8.3,2.1s5.8-0.8,8.3-2.3
			c2.5-1.6,4.4-3.7,5.6-6.6l-6-1.9c-0.8,1.6-1.9,2.9-3.3,3.7c-1.4,0.9-3.1,1.3-5,1.3c-2.9,0-5.1-1-6.7-2.9c-1.3-1.6-2-3.7-2.2-6.3
			L932.7,817.3L932.7,817.3z M909.3,812.5c0.3-2.2,1-4,2.1-5.3c1.6-1.9,3.9-2.9,6.9-2.9c2.8,0,4.8,0.9,6.2,2.6c1,1.3,1.7,3.2,2,5.6
			L909.3,812.5L909.3,812.5z"/>
		<path class="st0" d="M961.3,799.7v2.8c-0.5-0.6-1.1-1.1-1.8-1.5c-2.1-1.5-4.6-2.2-7.6-2.2s-5.5,0.7-7.7,2.2s-3.8,3.4-5,5.9
			s-1.8,5.4-1.8,8.6s0.6,6,1.7,8.5s2.8,4.5,4.9,6c2.1,1.5,4.7,2.2,7.6,2.2s5.6-0.7,7.6-2.2c0.4-0.3,0.7-0.6,1.1-0.9v3
			c0,1.8-0.3,3.3-0.9,4.6c-0.6,1.2-1.6,2.1-2.8,2.8s-2.7,0.9-4.4,0.9c-1.4,0-2.8-0.3-4-0.9c-1.3-0.6-2.2-1.6-2.9-3l-5.6,2.9
			c0.9,1.5,2,2.8,3.2,3.8c1.3,1,2.8,1.8,4.4,2.3c1.6,0.5,3.2,0.8,4.9,0.8c2.5,0,4.7-0.3,6.6-1s3.5-1.7,4.8-3.1
			c1.3-1.4,2.1-3.2,2.6-5.3c0.2-0.8,0.3-1.5,0.3-2.3c0.1-0.8,0.1-1.6,0.1-2.4v-32.5L961.3,799.7L961.3,799.7z M960.4,821.3
			c-0.6,1.7-1.5,3-2.8,3.9c-1.3,1-2.9,1.4-4.9,1.4s-3.6-0.5-4.9-1.5c-1.3-1-2.2-2.3-2.9-4c-0.6-1.7-1-3.6-1-5.7c0-2.1,0.3-3.9,1-5.6
			c0.6-1.7,1.6-3,2.9-4c1.3-1,3-1.5,5-1.5s3.5,0.5,4.7,1.4c1.3,0.9,2.2,2.3,2.8,3.9c0.6,1.7,0.9,3.6,0.9,5.8S961,819.6,960.4,821.3
			L960.4,821.3z"/>
		<path class="st0" d="M975.5,794.5v-5.9h6.1v5.9H975.5z M975.5,831.4v-31.7h6.1v31.7H975.5z"/>
		<path class="st0" d="M1018.8,817.3c0.2-3.8-0.2-7.1-1.3-9.8c-1.1-2.8-2.8-4.9-5.1-6.4s-5-2.3-8.2-2.3s-5.8,0.7-8.1,2.1
			c-2.3,1.4-4.1,3.4-5.4,5.9c-1.3,2.5-2,5.5-2,9c0,3.3,0.7,6.1,2,8.6s3.2,4.4,5.5,5.8c2.4,1.4,5.1,2.1,8.3,2.1
			c3.1,0,5.9-0.8,8.4-2.3c2.5-1.6,4.4-3.7,5.6-6.6l-6-1.9c-0.8,1.6-1.9,2.9-3.3,3.7c-1.4,0.9-3,1.3-4.9,1.3c-2.9,0-5.1-1-6.7-2.9
			c-1.3-1.6-2-3.7-2.2-6.3L1018.8,817.3L1018.8,817.3z M995.4,812.5c0.3-2.2,1-4,2.1-5.3c1.6-1.9,3.8-2.9,6.9-2.9
			c2.8,0,4.8,0.9,6.2,2.6c1,1.3,1.7,3.2,1.9,5.6L995.4,812.5L995.4,812.5z"/>
		<path class="st0" d="M1037.5,832.2c-3.8,0-7-0.8-9.4-2.5s-3.9-4.1-4.5-7.2l6.3-1c0.4,1.6,1.3,2.9,2.7,3.9s3.2,1.4,5.3,1.4
			c1.9,0,3.4-0.4,4.5-1.2s1.6-1.8,1.6-3.2c0-0.8-0.2-1.4-0.6-2c-0.4-0.5-1.2-1-2.4-1.4c-1.2-0.4-3.1-1-5.5-1.7
			c-2.7-0.7-4.9-1.5-6.5-2.3s-2.7-1.8-3.4-2.8s-1-2.4-1-3.9c0-1.9,0.5-3.6,1.5-5s2.4-2.5,4.3-3.3c1.8-0.8,4-1.2,6.5-1.2
			s4.6,0.4,6.5,1.1c1.9,0.8,3.4,1.8,4.6,3.2s1.9,3,2.1,4.9l-6.3,1.1c-0.2-1.5-0.9-2.7-2.1-3.6c-1.2-0.9-2.8-1.4-4.7-1.4
			c-1.8-0.1-3.4,0.2-4.5,0.9s-1.7,1.7-1.7,2.9c0,0.7,0.2,1.3,0.7,1.8c0.4,0.5,1.3,1,2.6,1.4c1.3,0.4,3.1,1,5.6,1.6
			c2.7,0.7,4.8,1.4,6.3,2.3c1.6,0.8,2.7,1.8,3.4,3c0.7,1.1,1,2.5,1,4.1c0,3.1-1.1,5.6-3.4,7.3
			C1044.7,831.3,1041.5,832.2,1037.5,832.2L1037.5,832.2z"/>
	</g>
</g>
</svg>
